<svg version="1.1" viewBox="0.0 0.0 600.0 371.0" fill="none" stroke="none" stroke-linecap="square" stroke-miterlimit="10" width="600" height="371" xmlns:xlink="http://www.w3.org/1999/xlink" xmlns="http://www.w3.org/2000/svg"><path fill="#ffffff" d="M0 0L600.0 0L600.0 371.0L0 371.0L0 0Z" fill-rule="nonzero"/><path stroke="#cccccc" stroke-width="1.0" stroke-linecap="butt" d="M80.5 92.5L80.5 300.5" fill-rule="nonzero"/><path stroke="#cccccc" stroke-width="1.0" stroke-linecap="butt" d="M191.5 92.5L191.5 300.5" fill-rule="nonzero"/><path stroke="#cccccc" stroke-width="1.0" stroke-linecap="butt" d="M303.5 92.5L303.5 300.5" fill-rule="nonzero"/><path stroke="#cccccc" stroke-width="1.0" stroke-linecap="butt" d="M414.5 92.5L414.5 300.5" fill-rule="nonzero"/><path stroke="#cccccc" stroke-width="1.0" stroke-linecap="butt" d="M525.5 92.5L525.5 300.5" fill-rule="nonzero"/><path stroke="#333333" stroke-width="1.0" stroke-linecap="butt" d="M80.5 300.5L581.5 300.5" fill-rule="nonzero"/><path stroke="#cccccc" stroke-width="1.0" stroke-linecap="butt" d="M80.5 248.5L581.5 248.5" fill-rule="nonzero"/><path stroke="#cccccc" stroke-width="1.0" stroke-linecap="butt" d="M80.5 196.5L581.5 196.5" fill-rule="nonzero"/><path stroke="#cccccc" stroke-width="1.0" stroke-linecap="butt" d="M80.5 144.5L581.5 144.5" fill-rule="nonzero"/><path stroke="#cccccc" stroke-width="1.0" stroke-linecap="butt" d="M80.5 92.5L581.5 92.5" fill-rule="nonzero"/><clipPath id="id_0"><path d="M80.55 92.28333L581.45 92.28333L581.45 300.45L80.55 300.45L80.55 92.28333Z" clip-rule="nonzero"/></clipPath><path stroke="#4285f4" stroke-width="2.0" stroke-linecap="butt" clip-path="url(#id_0)" d="M80.55 154.73334L136.20555 165.14166L191.86111 175.55L247.51666 206.775L303.1722 222.3875L358.8278 272.3475L414.48334 273.38834L470.1389 274.42917L525.79443 276.51083L581.45 277.55167" fill-rule="nonzero"/><path stroke="#ea4335" stroke-width="2.0" stroke-linecap="butt" clip-path="url(#id_0)" d="M80.55 113.1L136.20555 144.325L191.86111 180.75417L247.51666 222.3875L303.1722 258.81668L358.8278 273.38834L414.48334 273.38834L470.1389 273.38834L525.79443 273.38834L581.45 273.38834" fill-rule="nonzero"/><path stroke="#fbbc04" stroke-width="2.0" stroke-linecap="butt" clip-path="url(#id_0)" d="M80.55 144.325L136.20555 154.73334L191.86111 170.34584L247.51666 191.1625L303.1722 217.18333L358.8278 274.42917L414.48334 275.47L470.1389 276.51083L525.79443 277.55167L581.45 278.5925" fill-rule="nonzero"/><path fill="#000000" fill-opacity="0.0" clip-path="url(#id_0)" d="M83.55 154.73334C83.55 156.39018 82.206856 157.73334 80.55 157.73334C78.89314 157.73334 77.55 156.39018 77.55 154.73334C77.55 153.07648 78.89314 151.73334 80.55 151.73334C82.206856 151.73334 83.55 153.07648 83.55 154.73334Z" fill-rule="nonzero"/><path fill="#000000" fill-opacity="0.0" clip-path="url(#id_0)" d="M139.20555 165.14166C139.20555 166.79852 137.86241 168.14166 136.20555 168.14166C134.5487 168.14166 133.20555 166.79852 133.20555 165.14166C133.20555 163.48482 134.5487 162.14166 136.20555 162.14166C137.86241 162.14166 139.20555 163.48482 139.20555 165.14166Z" fill-rule="nonzero"/><path fill="#000000" fill-opacity="0.0" clip-path="url(#id_0)" d="M194.86111 175.55C194.86111 177.20685 193.51796 178.55 191.86111 178.55C190.20425 178.55 188.86111 177.20685 188.86111 175.55C188.86111 173.89314 190.20425 172.55 191.86111 172.55C193.51796 172.55 194.86111 173.89314 194.86111 175.55Z" fill-rule="nonzero"/><path fill="#000000" fill-opacity="0.0" clip-path="url(#id_0)" d="M250.51666 206.775C250.51666 208.43185 249.17352 209.775 247.51666 209.775C245.85982 209.775 244.51666 208.43185 244.51666 206.775C244.51666 205.11815 245.85982 203.775 247.51666 203.775C249.17352 203.775 250.51666 205.11815 250.51666 206.775Z" fill-rule="nonzero"/><path fill="#000000" fill-opacity="0.0" clip-path="url(#id_0)" d="M306.1722 222.3875C306.1722 224.04436 304.82907 225.3875 303.1722 225.3875C301.51538 225.3875 300.1722 224.04436 300.1722 222.3875C300.1722 220.73065 301.51538 219.3875 303.1722 219.3875C304.82907 219.3875 306.1722 220.73065 306.1722 222.3875Z" fill-rule="nonzero"/><path fill="#000000" fill-opacity="0.0" clip-path="url(#id_0)" d="M361.8278 272.3475C361.8278 274.00436 360.48462 275.3475 358.8278 275.3475C357.17093 275.3475 355.8278 274.00436 355.8278 272.3475C355.8278 270.69064 357.17093 269.3475 358.8278 269.3475C360.48462 269.3475 361.8278 270.69064 361.8278 272.3475Z" fill-rule="nonzero"/><path fill="#000000" fill-opacity="0.0" clip-path="url(#id_0)" d="M417.48334 273.38834C417.48334 275.0452 416.1402 276.38834 414.48334 276.38834C412.82648 276.38834 411.48334 275.0452 411.48334 273.38834C411.48334 271.73148 412.82648 270.38834 414.48334 270.38834C416.1402 270.38834 417.48334 271.73148 417.48334 273.38834Z" fill-rule="nonzero"/><path fill="#000000" fill-opacity="0.0" clip-path="url(#id_0)" d="M473.1389 274.42917C473.1389 276.08603 471.79575 277.42917 470.1389 277.42917C468.48203 277.42917 467.1389 276.08603 467.1389 274.42917C467.1389 272.7723 468.48203 271.42917 470.1389 271.42917C471.79575 271.42917 473.1389 272.7723 473.1389 274.42917Z" fill-rule="nonzero"/><path fill="#000000" fill-opacity="0.0" clip-path="url(#id_0)" d="M528.79443 276.51083C528.79443 278.1677 527.4513 279.51083 525.79443 279.51083C524.1376 279.51083 522.79443 278.1677 522.79443 276.51083C522.79443 274.85397 524.1376 273.51083 525.79443 273.51083C527.4513 273.51083 528.79443 274.85397 528.79443 276.51083Z" fill-rule="nonzero"/><path fill="#000000" fill-opacity="0.0" clip-path="url(#id_0)" d="M584.45 277.55167C584.45 279.20853 583.1069 280.55167 581.45 280.55167C579.79315 280.55167 578.45 279.20853 578.45 277.55167C578.45 275.8948 579.79315 274.55167 581.45 274.55167C583.1069 274.55167 584.45 275.8948 584.45 277.55167Z" fill-rule="nonzero"/><path fill="#000000" fill-opacity="0.0" clip-path="url(#id_0)" d="M83.55 113.1C83.55 114.75685 82.206856 116.1 80.55 116.1C78.89314 116.1 77.55 114.75685 77.55 113.1C77.55 111.443146 78.89314 110.1 80.55 110.1C82.206856 110.1 83.55 111.443146 83.55 113.1Z" fill-rule="nonzero"/><path fill="#000000" fill-opacity="0.0" clip-path="url(#id_0)" d="M139.20555 144.325C139.20555 145.98186 137.86241 147.325 136.20555 147.325C134.5487 147.325 133.20555 145.98186 133.20555 144.325C133.20555 142.66815 134.5487 141.325 136.20555 141.325C137.86241 141.325 139.20555 142.66815 139.20555 144.325Z" fill-rule="nonzero"/><path fill="#000000" fill-opacity="0.0" clip-path="url(#id_0)" d="M194.86111 180.75417C194.86111 182.41103 193.51796 183.75417 191.86111 183.75417C190.20425 183.75417 188.86111 182.41103 188.86111 180.75417C188.86111 179.0973 190.20425 177.75417 191.86111 177.75417C193.51796 177.75417 194.86111 179.0973 194.86111 180.75417Z" fill-rule="nonzero"/><path fill="#000000" fill-opacity="0.0" clip-path="url(#id_0)" d="M250.51666 222.3875C250.51666 224.04436 249.17352 225.3875 247.51666 225.3875C245.85982 225.3875 244.51666 224.04436 244.51666 222.3875C244.51666 220.73065 245.85982 219.3875 247.51666 219.3875C249.17352 219.3875 250.51666 220.73065 250.51666 222.3875Z" fill-rule="nonzero"/><path fill="#000000" fill-opacity="0.0" clip-path="url(#id_0)" d="M306.1722 258.81668C306.1722 260.4735 304.82907 261.81668 303.1722 261.81668C301.51538 261.81668 300.1722 260.4735 300.1722 258.81668C300.1722 257.15982 301.51538 255.81667 303.1722 255.81667C304.82907 255.81667 306.1722 257.15982 306.1722 258.81668Z" fill-rule="nonzero"/><path fill="#000000" fill-opacity="0.0" clip-path="url(#id_0)" d="M361.8278 273.38834C361.8278 275.0452 360.48462 276.38834 358.8278 276.38834C357.17093 276.38834 355.8278 275.0452 355.8278 273.38834C355.8278 271.73148 357.17093 270.38834 358.8278 270.38834C360.48462 270.38834 361.8278 271.73148 361.8278 273.38834Z" fill-rule="nonzero"/><path fill="#000000" fill-opacity="0.0" clip-path="url(#id_0)" d="M417.48334 273.38834C417.48334 275.0452 416.1402 276.38834 414.48334 276.38834C412.82648 276.38834 411.48334 275.0452 411.48334 273.38834C411.48334 271.73148 412.82648 270.38834 414.48334 270.38834C416.1402 270.38834 417.48334 271.73148 417.48334 273.38834Z" fill-rule="nonzero"/><path fill="#000000" fill-opacity="0.0" clip-path="url(#id_0)" d="M473.1389 273.38834C473.1389 275.0452 471.79575 276.38834 470.1389 276.38834C468.48203 276.38834 467.1389 275.0452 467.1389 273.38834C467.1389 271.73148 468.48203 270.38834 470.1389 270.38834C471.79575 270.38834 473.1389 271.73148 473.1389 273.38834Z" fill-rule="nonzero"/><path fill="#000000" fill-opacity="0.0" clip-path="url(#id_0)" d="M528.79443 273.38834C528.79443 275.0452 527.4513 276.38834 525.79443 276.38834C524.1376 276.38834 522.79443 275.0452 522.79443 273.38834C522.79443 271.73148 524.1376 270.38834 525.79443 270.38834C527.4513 270.38834 528.79443 271.73148 528.79443 273.38834Z" fill-rule="nonzero"/><path fill="#000000" fill-opacity="0.0" clip-path="url(#id_0)" d="M584.45 273.38834C584.45 275.0452 583.1069 276.38834 581.45 276.38834C579.79315 276.38834 578.45 275.0452 578.45 273.38834C578.45 271.73148 579.79315 270.38834 581.45 270.38834C583.1069 270.38834 584.45 271.73148 584.45 273.38834Z" fill-rule="nonzero"/><path fill="#000000" fill-opacity="0.0" clip-path="url(#id_0)" d="M83.55 144.325C83.55 145.98186 82.206856 147.325 80.55 147.325C78.89314 147.325 77.55 145.98186 77.55 144.325C77.55 142.66815 78.89314 141.325 80.55 141.325C82.206856 141.325 83.55 142.66815 83.55 144.325Z" fill-rule="nonzero"/><path fill="#000000" fill-opacity="0.0" clip-path="url(#id_0)" d="M139.20555 154.73334C139.20555 156.39018 137.86241 157.73334 136.20555 157.73334C134.5487 157.73334 133.20555 156.39018 133.20555 154.73334C133.20555 153.07648 134.5487 151.73334 136.20555 151.73334C137.86241 151.73334 139.20555 153.07648 139.20555 154.73334Z" fill-rule="nonzero"/><path fill="#000000" fill-opacity="0.0" clip-path="url(#id_0)" d="M194.86111 170.34584C194.86111 172.00269 193.51796 173.34584 191.86111 173.34584C190.20425 173.34584 188.86111 172.00269 188.86111 170.34584C188.86111 168.68898 190.20425 167.34584 191.86111 167.34584C193.51796 167.34584 194.86111 168.68898 194.86111 170.34584Z" fill-rule="nonzero"/><path fill="#000000" fill-opacity="0.0" clip-path="url(#id_0)" d="M250.51666 191.1625C250.51666 192.81935 249.17352 194.1625 247.51666 194.1625C245.85982 194.1625 244.51666 192.81935 244.51666 191.1625C244.51666 189.50565 245.85982 188.1625 247.51666 188.1625C249.17352 188.1625 250.51666 189.50565 250.51666 191.1625Z" fill-rule="nonzero"/><path fill="#000000" fill-opacity="0.0" clip-path="url(#id_0)" d="M306.1722 217.18333C306.1722 218.8402 304.82907 220.18333 303.1722 220.18333C301.51538 220.18333 300.1722 218.8402 300.1722 217.18333C300.1722 215.52647 301.51538 214.18333 303.1722 214.18333C304.82907 214.18333 306.1722 215.52647 306.1722 217.18333Z" fill-rule="nonzero"/><path fill="#000000" fill-opacity="0.0" clip-path="url(#id_0)" d="M361.8278 274.42917C361.8278 276.08603 360.48462 277.42917 358.8278 277.42917C357.17093 277.42917 355.8278 276.08603 355.8278 274.42917C355.8278 272.7723 357.17093 271.42917 358.8278 271.42917C360.48462 271.42917 361.8278 272.7723 361.8278 274.42917Z" fill-rule="nonzero"/><path fill="#000000" fill-opacity="0.0" clip-path="url(#id_0)" d="M417.48334 275.47C417.48334 277.12686 416.1402 278.47 414.48334 278.47C412.82648 278.47 411.48334 277.12686 411.48334 275.47C411.48334 273.81314 412.82648 272.47 414.48334 272.47C416.1402 272.47 417.48334 273.81314 417.48334 275.47Z" fill-rule="nonzero"/><path fill="#000000" fill-opacity="0.0" clip-path="url(#id_0)" d="M473.1389 276.51083C473.1389 278.1677 471.79575 279.51083 470.1389 279.51083C468.48203 279.51083 467.1389 278.1677 467.1389 276.51083C467.1389 274.85397 468.48203 273.51083 470.1389 273.51083C471.79575 273.51083 473.1389 274.85397 473.1389 276.51083Z" fill-rule="nonzero"/><path fill="#000000" fill-opacity="0.0" clip-path="url(#id_0)" d="M528.79443 277.55167C528.79443 279.20853 527.4513 280.55167 525.79443 280.55167C524.1376 280.55167 522.79443 279.20853 522.79443 277.55167C522.79443 275.8948 524.1376 274.55167 525.79443 274.55167C527.4513 274.55167 528.79443 275.8948 528.79443 277.55167Z" fill-rule="nonzero"/><path fill="#000000" fill-opacity="0.0" clip-path="url(#id_0)" d="M584.45 278.5925C584.45 280.24936 583.1069 281.5925 581.45 281.5925C579.79315 281.5925 578.45 280.24936 578.45 278.5925C578.45 276.93564 579.79315 275.5925 581.45 275.5925C583.1069 275.5925 584.45 276.93564 584.45 278.5925Z" fill-rule="nonzero"/><path fill="#000000" d="M321.34375 349.45L321.34375 345.8094L318.03125 340.85626L319.42188 340.85626L321.10938 343.45Q321.57812 344.16876 321.98438 344.90314Q322.375 344.23126 322.92188 343.3875L324.59375 340.85626L325.90625 340.85626L322.48438 345.8094L322.48438 349.45L321.34375 349.45ZM331.04688 347.45L332.14062 347.575Q331.89062 348.52814 331.1875 349.0594Q330.48438 349.59064 329.40625 349.59064Q328.04688 349.59064 327.23438 348.7469Q326.4375 347.90314 326.4375 346.3875Q326.4375 344.825 327.25 343.96564Q328.0625 343.09064 329.34375 343.09064Q330.59375 343.09064 331.375 343.9344Q332.17188 344.77814 332.17188 346.325Q332.17188 346.41876 332.17188 346.60626L327.53125 346.60626Q327.59375 347.6375 328.10938 348.1844Q328.625 348.71564 329.40625 348.71564Q329.98438 348.71564 330.39062 348.41876Q330.8125 348.10626 331.04688 347.45ZM327.59375 345.7469L331.0625 345.7469Q331.0 344.95 330.67188 344.5594Q330.15625 343.95 329.35938 343.95Q328.625 343.95 328.125 344.4344Q327.64062 344.91876 327.59375 345.7469ZM337.85938 348.6844Q337.26562 349.1844 336.71875 349.3875Q336.1875 349.59064 335.5625 349.59064Q334.53125 349.59064 333.98438 349.09064Q333.4375 348.59064 333.4375 347.8094Q333.4375 347.35626 333.64062 346.98126Q333.84375 346.59064 334.1875 346.3719Q334.53125 346.1375 334.95312 346.02814Q335.25 345.9344 335.89062 345.85626Q337.15625 345.71564 337.76562 345.4969Q337.76562 345.27814 337.76562 345.23126Q337.76562 344.575 337.46875 344.3094Q337.0625 343.96564 336.26562 343.96564Q335.53125 343.96564 335.17188 344.23126Q334.8125 344.48126 334.64062 345.1375L333.60938 344.9969Q333.75 344.34064 334.07812 343.9344Q334.40625 343.52814 335.01562 343.3094Q335.625 343.09064 336.42188 343.09064Q337.21875 343.09064 337.71875 343.27814Q338.21875 343.46564 338.45312 343.7469Q338.6875 344.02814 338.78125 344.46564Q338.82812 344.73126 338.82812 345.4344L338.82812 346.84064Q338.82812 348.3094 338.89062 348.7Q338.96875 349.09064 339.17188 349.45L338.0625 349.45Q337.90625 349.1219 337.85938 348.6844ZM337.76562 346.325Q337.1875 346.5594 336.04688 346.73126Q335.39062 346.825 335.125 346.95Q334.85938 347.0594 334.70312 347.27814Q334.5625 347.4969 334.5625 347.77814Q334.5625 348.2 334.875 348.48126Q335.20312 348.7625 335.8125 348.7625Q336.42188 348.7625 336.89062 348.4969Q337.375 348.23126 337.59375 347.7625Q337.76562 347.40314 337.76562 346.71564L337.76562 346.325ZM340.78125 349.45L340.78125 343.23126L341.73438 343.23126L341.73438 344.16876Q342.09375 343.5125 342.39062 343.3094Q342.70312 343.09064 343.07812 343.09064Q343.60938 343.09064 344.15625 343.41876L343.79688 344.40314Q343.40625 344.16876 343.03125 344.16876Q342.67188 344.16876 342.39062 344.3875Q342.125 344.59064 342.01562 344.96564Q341.82812 345.52814 341.82812 346.1844L341.82812 349.45L340.78125 349.45Z" fill-rule="nonzero"/><path fill="#000000" d="M29.550013 254.4448L20.956263 254.4448L20.956263 251.1948Q20.956263 250.35104 21.034388 249.89792Q21.143763 249.2573 21.440638 248.83542Q21.737513 248.39792 22.268763 248.14792Q22.800013 247.8823 23.440638 247.8823Q24.534388 247.8823 25.300013 248.58542Q26.050013 249.27292 26.050013 251.10104L26.050013 253.30417L29.550013 253.30417L29.550013 254.4448ZM25.050013 253.30417L25.050013 251.08542Q25.050013 249.97604 24.643763 249.52292Q24.221888 249.05417 23.471888 249.05417Q22.940638 249.05417 22.565638 249.33542Q22.175013 249.60104 22.050013 250.03854Q21.971888 250.33542 21.971888 251.10104L21.971888 253.30417L25.050013 253.30417ZM29.550013 246.58542L23.331263 246.58542L23.331263 245.6323L24.268763 245.6323Q23.612513 245.27292 23.409388 244.97604Q23.190638 244.66354 23.190638 244.28854Q23.190638 243.7573 23.518763 243.21042L24.503138 243.5698Q24.268763 243.96042 24.268763 244.33542Q24.268763 244.6948 24.487513 244.97604Q24.690638 245.24167 25.065638 245.35104Q25.628138 245.53854 26.284388 245.53854L29.550013 245.53854L29.550013 246.58542ZM22.175013 242.5698L20.956263 242.5698L20.956263 241.5073L22.175013 241.5073L22.175013 242.5698ZM29.550013 242.5698L23.331263 242.5698L23.331263 241.5073L29.550013 241.5073L29.550013 242.5698ZM27.268763 235.5073L27.409388 234.47604Q28.471888 234.64792 29.081263 235.35104Q29.690638 236.05417 29.690638 237.0698Q29.690638 238.35104 28.862513 239.1323Q28.018763 239.89792 26.456263 239.89792Q25.456263 239.89792 24.706263 239.5698Q23.940638 239.22604 23.565638 238.55417Q23.190638 237.86667 23.190638 237.05417Q23.190638 236.05417 23.706263 235.41354Q24.206263 234.7573 25.159388 234.5698L25.315638 235.60104Q24.690638 235.74167 24.378138 236.11667Q24.050013 236.49167 24.050013 237.02292Q24.050013 237.8198 24.628138 238.3198Q25.190638 238.8198 26.425013 238.8198Q27.690638 238.8198 28.253138 238.33542Q28.815638 237.85104 28.815638 237.08542Q28.815638 236.46042 28.440638 236.05417Q28.065638 235.6323 27.268763 235.5073ZM27.550013 229.3198L27.675013 228.22604Q28.628138 228.47604 29.159388 229.17917Q29.690638 229.8823 29.690638 230.96042Q29.690638 232.3198 28.846888 233.1323Q28.003138 233.92917 26.487513 233.92917Q24.925013 233.92917 24.065638 233.11667Q23.190638 232.30417 23.190638 231.02292Q23.190638 229.77292 24.034388 228.99167Q24.878138 228.1948 26.425013 228.1948Q26.518763 228.1948 26.706263 228.1948L26.706263 232.83542Q27.737513 232.77292 28.284388 232.2573Q28.815638 231.74167 28.815638 230.96042Q28.815638 230.3823 28.518763 229.97604Q28.206263 229.55417 27.550013 229.3198ZM25.846888 232.77292L25.846888 229.30417Q25.050013 229.36667 24.659388 229.6948Q24.050013 230.21042 24.050013 231.0073Q24.050013 231.74167 24.534388 232.24167Q25.018763 232.72604 25.846888 232.77292ZM32.08126 221.55417Q30.971888 222.42917 29.503138 223.03854Q28.018763 223.6323 26.440638 223.6323Q25.050013 223.6323 23.768763 223.1948Q22.284388 222.66354 20.815638 221.55417L20.815638 220.80417Q22.034388 221.5073 22.550013 221.74167Q23.362513 222.10104 24.237513 222.30417Q25.331263 222.55417 26.440638 222.55417Q29.268763 222.55417 32.08126 220.80417L32.08126 221.55417ZM22.175013 219.5698L20.956263 219.5698L20.956263 218.5073L22.175013 218.5073L22.175013 219.5698ZM29.550013 219.5698L23.331263 219.5698L23.331263 218.5073L29.550013 218.5073L29.550013 219.5698ZM29.550013 216.5698L23.331263 216.5698L23.331263 215.6323L24.206263 215.6323Q23.190638 214.9448 23.190638 213.64792Q23.190638 213.08542 23.393763 212.61667Q23.596888 212.1323 23.925013 211.89792Q24.253138 211.66354 24.690638 211.5698Q24.987513 211.52292 25.721888 211.52292L29.550013 211.52292L29.550013 212.5698L25.768763 212.5698Q25.112513 212.5698 24.800013 212.6948Q24.487513 212.8198 24.300013 213.1323Q24.096888 213.4448 24.096888 213.86667Q24.096888 214.53854 24.534388 215.03854Q24.956263 215.52292 26.143763 215.52292L29.550013 215.52292L29.550013 216.5698ZM20.956263 200.80417L20.956263 199.66354L25.925013 199.66354Q27.221888 199.66354 27.987513 199.96042Q28.737513 200.2573 29.221888 201.02292Q29.690638 201.78854 29.690638 203.02292Q29.690638 204.22604 29.284388 205.0073Q28.862513 205.77292 28.081263 206.10104Q27.284388 206.42917 25.925013 206.42917L20.956263 206.42917L20.956263 205.28854L25.909388 205.28854Q27.034388 205.28854 27.565638 205.08542Q28.096888 204.86667 28.393763 204.36667Q28.675013 203.85104 28.675013 203.11667Q28.675013 201.86667 28.112513 201.33542Q27.534388 200.80417 25.909388 200.80417L20.956263 200.80417ZM26.784388 197.8198L26.690638 196.7573Q27.346888 196.67917 27.753138 196.39792Q28.159388 196.11667 28.425013 195.53854Q28.675013 194.9448 28.675013 194.21042Q28.675013 193.5698 28.487513 193.0698Q28.284388 192.5698 27.956263 192.33542Q27.612513 192.08542 27.221888 192.08542Q26.815638 192.08542 26.518763 192.3198Q26.206263 192.55417 26.003138 193.08542Q25.862513 193.4448 25.581263 194.6323Q25.300013 195.80417 25.050013 196.27292Q24.721888 196.89792 24.253138 197.1948Q23.768763 197.49167 23.175013 197.49167Q22.534388 197.49167 21.971888 197.1323Q21.393763 196.7573 21.112513 196.05417Q20.815638 195.33542 20.815638 194.47604Q20.815638 193.52292 21.128138 192.78854Q21.425013 192.05417 22.034388 191.66354Q22.628138 191.27292 23.378138 191.24167L23.456263 192.33542Q22.643763 192.42917 22.237513 192.9448Q21.815638 193.4448 21.815638 194.42917Q21.815638 195.46042 22.190638 195.92917Q22.565638 196.39792 23.096888 196.39792Q23.565638 196.39792 23.862513 196.0698Q24.159388 195.74167 24.471888 194.36667Q24.784388 192.97604 25.018763 192.46042Q25.378138 191.71042 25.909388 191.35104Q26.425013 190.99167 27.128138 190.99167Q27.815638 190.99167 28.425013 191.3823Q29.018763 191.77292 29.362513 192.5073Q29.690638 193.24167 29.690638 194.16354Q29.690638 195.33542 29.362513 196.1323Q29.018763 196.91354 28.331263 197.36667Q27.643763 197.80417 26.784388 197.8198ZM29.550013 189.4448L20.956263 189.4448L20.956263 186.47604Q20.956263 185.47604 21.081263 184.9448Q21.253138 184.21042 21.690638 183.6948Q22.268763 183.0073 23.175013 182.67917Q24.065638 182.33542 25.206263 182.33542Q26.190638 182.33542 26.940638 182.5698Q27.690638 182.78854 28.190638 183.14792Q28.690638 183.5073 28.971888 183.9448Q29.253138 184.36667 29.409388 184.96042Q29.550013 185.55417 29.550013 186.33542L29.550013 189.4448ZM28.534388 188.30417L28.534388 186.47604Q28.534388 185.61667 28.378138 185.1323Q28.221888 184.64792 27.925013 184.36667Q27.534388 183.96042 26.846888 183.74167Q26.159388 183.5073 25.190638 183.5073Q23.846888 183.5073 23.128138 183.96042Q22.393763 184.39792 22.143763 185.02292Q21.971888 185.49167 21.971888 186.49167L21.971888 188.30417L28.534388 188.30417ZM29.690638 181.36667L20.815638 178.8823L20.815638 178.03854L29.690638 180.52292L29.690638 181.36667ZM29.550013 173.89792L29.550013 174.9448L22.831263 174.9448Q23.190638 175.33542 23.565638 175.96042Q23.925013 176.5698 24.096888 177.05417L23.081263 177.05417Q22.659388 176.17917 22.081263 175.52292Q21.487513 174.85104 20.925013 174.5698L20.925013 173.89792L29.550013 173.89792ZM26.175013 166.41354L25.175013 166.41354L25.159388 162.78854L28.346888 162.78854Q29.018763 163.61667 29.362513 164.5073Q29.690638 165.39792 29.690638 166.33542Q29.690638 167.60104 29.159388 168.64792Q28.612513 169.67917 27.596888 170.21042Q26.565638 170.72604 25.300013 170.72604Q24.034388 170.72604 22.956263 170.21042Q21.862513 169.67917 21.346888 168.6948Q20.815638 167.71042 20.815638 166.42917Q20.815638 165.49167 21.112513 164.74167Q21.409388 163.99167 21.956263 163.5698Q22.487513 163.1323 23.362513 162.91354L23.643763 163.92917Q22.987513 164.1323 22.612513 164.42917Q22.237513 164.71042 22.018763 165.24167Q21.784388 165.77292 21.784388 166.41354Q21.784388 167.1948 22.018763 167.77292Q22.253138 168.33542 22.643763 168.6948Q23.034388 169.03854 23.503138 169.22604Q24.300013 169.55417 25.221888 169.55417Q26.378138 169.55417 27.159388 169.16354Q27.925013 168.7573 28.300013 168.0073Q28.675013 167.2573 28.675013 166.39792Q28.675013 165.66354 28.393763 164.96042Q28.096888 164.2573 27.784388 163.89792L26.175013 163.89792L26.175013 166.41354ZM29.550013 161.49167L20.956263 161.49167L20.956263 158.2573Q20.956263 157.27292 21.221888 156.67917Q21.487513 156.08542 22.034388 155.7573Q22.565638 155.41354 23.159388 155.41354Q23.706263 155.41354 24.190638 155.71042Q24.675013 156.0073 24.971888 156.61667Q25.206263 155.83542 25.768763 155.42917Q26.315638 155.0073 27.065638 155.0073Q27.659388 155.0073 28.190638 155.2573Q28.706263 155.5073 28.987513 155.8823Q29.268763 156.2573 29.409388 156.83542Q29.550013 157.39792 29.550013 158.21042L29.550013 161.49167ZM24.565638 160.35104L24.565638 158.49167Q24.565638 157.74167 24.471888 157.41354Q24.346888 156.97604 24.050013 156.7573Q23.737513 156.53854 23.284388 156.53854Q22.862513 156.53854 22.534388 156.74167Q22.206263 156.9448 22.096888 157.33542Q21.971888 157.71042 21.971888 158.6323L21.971888 160.35104L24.565638 160.35104ZM28.534388 160.35104L28.534388 158.21042Q28.534388 157.66354 28.487513 157.4448Q28.425013 157.03854 28.268763 156.78854Q28.096888 156.52292 27.784388 156.35104Q27.471888 156.17917 27.065638 156.17917Q26.581263 156.17917 26.221888 156.42917Q25.862513 156.66354 25.721888 157.10104Q25.581263 157.53854 25.581263 158.36667L25.581263 160.35104L28.534388 160.35104ZM32.08126 152.8823L32.08126 153.6323Q29.268763 151.8823 26.440638 151.8823Q25.346888 151.8823 24.253138 152.1323Q23.378138 152.33542 22.565638 152.6948Q22.050013 152.92917 20.815638 153.6323L20.815638 152.8823Q22.284388 151.78854 23.768763 151.2573Q25.050013 150.80417 26.440638 150.80417Q28.018763 150.80417 29.503138 151.41354Q30.971888 152.02292 32.08126 152.8823Z" fill-rule="nonzero"/><path fill="#000000" d="M68.05 300.21564Q68.05 298.6844 68.3625 297.7625Q68.675 296.825 69.28438 296.325Q69.90938 295.825 70.84688 295.825Q71.53438 295.825 72.05 296.10626Q72.58125 296.3875 72.925 296.91876Q73.26875 297.4344 73.45625 298.1844Q73.64375 298.9344 73.64375 300.21564Q73.64375 301.73126 73.33125 302.65314Q73.03438 303.575 72.40938 304.09064Q71.8 304.59064 70.84688 304.59064Q69.6125 304.59064 68.89375 303.7Q68.05 302.6375 68.05 300.21564ZM69.12813 300.21564Q69.12813 302.325 69.62813 303.02814Q70.12813 303.73126 70.84688 303.73126Q71.58125 303.73126 72.06563 303.02814Q72.56563 302.325 72.56563 300.21564Q72.56563 298.09064 72.06563 297.40314Q71.58125 296.7 70.83125 296.7Q70.1125 296.7 69.675 297.3094Q69.12813 298.09064 69.12813 300.21564Z" fill-rule="nonzero"/><path fill="#000000" d="M51.05 248.17397Q51.05 246.64272 51.3625 245.72084Q51.675 244.78334 52.284374 244.28334Q52.909374 243.78334 53.846874 243.78334Q54.534374 243.78334 55.05 244.06459Q55.58125 244.34584 55.925 244.87709Q56.26875 245.39272 56.45625 246.14272Q56.64375 246.89272 56.64375 248.17397Q56.64375 249.68959 56.33125 250.61147Q56.034374 251.53334 55.409374 252.04897Q54.8 252.54897 53.846874 252.54897Q52.6125 252.54897 51.89375 251.65834Q51.05 250.59584 51.05 248.17397ZM52.128124 248.17397Q52.128124 250.28334 52.628124 250.98647Q53.128124 251.68959 53.846874 251.68959Q54.58125 251.68959 55.065624 250.98647Q55.565624 250.28334 55.565624 248.17397Q55.565624 246.04897 55.065624 245.36147Q54.58125 244.65834 53.83125 244.65834Q53.1125 244.65834 52.675 245.26772Q52.128124 246.04897 52.128124 248.17397ZM58.64375 252.40834L58.64375 251.20522L59.846874 251.20522L59.846874 252.40834L58.64375 252.40834ZM61.05 248.17397Q61.05 246.64272 61.3625 245.72084Q61.675 244.78334 62.284374 244.28334Q62.909374 243.78334 63.846874 243.78334Q64.53438 243.78334 65.05 244.06459Q65.58125 244.34584 65.925 244.87709Q66.26875 245.39272 66.45625 246.14272Q66.64375 246.89272 66.64375 248.17397Q66.64375 249.68959 66.33125 250.61147Q66.03438 251.53334 65.40938 252.04897Q64.8 252.54897 63.846874 252.54897Q62.6125 252.54897 61.89375 251.65834Q61.05 250.59584 61.05 248.17397ZM62.128124 248.17397Q62.128124 250.28334 62.628124 250.98647Q63.128124 251.68959 63.846874 251.68959Q64.58125 251.68959 65.06563 250.98647Q65.56563 250.28334 65.56563 248.17397Q65.56563 246.04897 65.06563 245.36147Q64.58125 244.65834 63.83125 244.65834Q63.1125 244.65834 62.675 245.26772Q62.128124 246.04897 62.128124 248.17397ZM68.05 250.15834L69.15938 250.06459Q69.28438 250.87709 69.72188 251.28334Q70.175 251.68959 70.81563 251.68959Q71.56563 251.68959 72.09688 251.11147Q72.62813 250.53334 72.62813 249.59584Q72.62813 248.68959 72.1125 248.17397Q71.6125 247.64272 70.78438 247.64272Q70.28438 247.64272 69.8625 247.87709Q69.45625 248.11147 69.22188 248.47084L68.2375 248.34584L69.06563 243.93959L73.34688 243.93959L73.34688 244.93959L69.90938 244.93959L69.45625 247.25209Q70.22188 246.70522 71.06563 246.70522Q72.19063 246.70522 72.95625 247.48647Q73.7375 248.26772 73.7375 249.50209Q73.7375 250.65834 73.06563 251.51772Q72.2375 252.54897 70.81563 252.54897Q69.64375 252.54897 68.89375 251.89272Q68.15938 251.23647 68.05 250.15834Z" fill-rule="nonzero"/><path fill="#000000" d="M58.05 196.1323Q58.05 194.60104 58.3625 193.67917Q58.675 192.74167 59.284374 192.24167Q59.909374 191.74167 60.846874 191.74167Q61.534374 191.74167 62.05 192.02292Q62.58125 192.30417 62.925 192.83542Q63.26875 193.35104 63.45625 194.10104Q63.64375 194.85104 63.64375 196.1323Q63.64375 197.64792 63.33125 198.5698Q63.034374 199.49167 62.409374 200.0073Q61.8 200.5073 60.846874 200.5073Q59.6125 200.5073 58.89375 199.61667Q58.05 198.55417 58.05 196.1323ZM59.128124 196.1323Q59.128124 198.24167 59.628124 198.9448Q60.128124 199.64792 60.846874 199.64792Q61.58125 199.64792 62.065624 198.9448Q62.565624 198.24167 62.565624 196.1323Q62.565624 194.0073 62.065624 193.3198Q61.58125 192.61667 60.83125 192.61667Q60.1125 192.61667 59.675 193.22604Q59.128124 194.0073 59.128124 196.1323ZM65.64375 200.36667L65.64375 199.16354L66.84688 199.16354L66.84688 200.36667L65.64375 200.36667ZM72.01875 200.36667L70.97188 200.36667L70.97188 193.64792Q70.58125 194.0073 69.95625 194.3823Q69.34688 194.74167 68.8625 194.91354L68.8625 193.89792Q69.7375 193.47604 70.39375 192.89792Q71.06563 192.30417 71.34688 191.74167L72.01875 191.74167L72.01875 200.36667Z" fill-rule="nonzero"/><path fill="#000000" d="M51.05 144.09062Q51.05 142.55937 51.3625 141.6375Q51.675 140.7 52.284374 140.2Q52.909374 139.7 53.846874 139.7Q54.534374 139.7 55.05 139.98125Q55.58125 140.2625 55.925 140.79375Q56.26875 141.30937 56.45625 142.05937Q56.64375 142.80937 56.64375 144.09062Q56.64375 145.60625 56.33125 146.52812Q56.034374 147.45 55.409374 147.96562Q54.8 148.46562 53.846874 148.46562Q52.6125 148.46562 51.89375 147.575Q51.05 146.5125 51.05 144.09062ZM52.128124 144.09062Q52.128124 146.2 52.628124 146.90312Q53.128124 147.60625 53.846874 147.60625Q54.58125 147.60625 55.065624 146.90312Q55.565624 146.2 55.565624 144.09062Q55.565624 141.96562 55.065624 141.27812Q54.58125 140.575 53.83125 140.575Q53.1125 140.575 52.675 141.18437Q52.128124 141.96562 52.128124 144.09062ZM58.64375 148.325L58.64375 147.12187L59.846874 147.12187L59.846874 148.325L58.64375 148.325ZM65.01875 148.325L63.971874 148.325L63.971874 141.60625Q63.58125 141.96562 62.95625 142.34062Q62.346874 142.7 61.8625 142.87187L61.8625 141.85625Q62.7375 141.43437 63.39375 140.85625Q64.06563 140.2625 64.34688 139.7L65.01875 139.7L65.01875 148.325ZM68.05 146.075L69.15938 145.98125Q69.28438 146.79375 69.72188 147.2Q70.175 147.60625 70.81563 147.60625Q71.56563 147.60625 72.09688 147.02812Q72.62813 146.45 72.62813 145.5125Q72.62813 144.60625 72.1125 144.09062Q71.6125 143.55937 70.78438 143.55937Q70.28438 143.55937 69.8625 143.79375Q69.45625 144.02812 69.22188 144.3875L68.2375 144.2625L69.06563 139.85625L73.34688 139.85625L73.34688 140.85625L69.90938 140.85625L69.45625 143.16875Q70.22188 142.62187 71.06563 142.62187Q72.19063 142.62187 72.95625 143.40312Q73.7375 144.18437 73.7375 145.41875Q73.7375 146.575 73.06563 147.43437Q72.2375 148.46562 70.81563 148.46562Q69.64375 148.46562 68.89375 147.80937Q68.15938 147.15312 68.05 146.075Z" fill-rule="nonzero"/><path fill="#000000" d="M58.05 92.04896Q58.05 90.51771 58.3625 89.59583Q58.675 88.65833 59.284374 88.15833Q59.909374 87.65833 60.846874 87.65833Q61.534374 87.65833 62.05 87.93958Q62.58125 88.22083 62.925 88.75208Q63.26875 89.26771 63.45625 90.01771Q63.64375 90.76771 63.64375 92.04896Q63.64375 93.56458 63.33125 94.48646Q63.034374 95.40833 62.409374 95.92396Q61.8 96.42396 60.846874 96.42396Q59.6125 96.42396 58.89375 95.53333Q58.05 94.47083 58.05 92.04896ZM59.128124 92.04896Q59.128124 94.15833 59.628124 94.86146Q60.128124 95.56458 60.846874 95.56458Q61.58125 95.56458 62.065624 94.86146Q62.565624 94.15833 62.565624 92.04896Q62.565624 89.92396 62.065624 89.23646Q61.58125 88.53333 60.83125 88.53333Q60.1125 88.53333 59.675 89.14271Q59.128124 89.92396 59.128124 92.04896ZM65.64375 96.28333L65.64375 95.08021L66.84688 95.08021L66.84688 96.28333L65.64375 96.28333ZM73.59688 95.26771L73.59688 96.28333L67.90938 96.28333Q67.90938 95.90833 68.03438 95.54896Q68.25313 94.97083 68.72188 94.40833Q69.20625 93.84583 70.1125 93.11146Q71.51875 91.95521 72.00313 91.28333Q72.50313 90.61146 72.50313 90.01771Q72.50313 89.39271 72.05 88.97083Q71.59688 88.53333 70.87813 88.53333Q70.1125 88.53333 69.65938 88.98646Q69.20625 89.43958 69.19063 90.25208L68.1125 90.14271Q68.22188 88.92396 68.94063 88.29896Q69.675 87.65833 70.90938 87.65833Q72.14375 87.65833 72.8625 88.34583Q73.58125 89.03333 73.58125 90.04896Q73.58125 90.56458 73.3625 91.06458Q73.15938 91.54896 72.65938 92.11146Q72.175 92.65833 71.05 93.61146Q70.09688 94.40833 69.81563 94.70521Q69.55 94.98646 69.37813 95.26771L73.59688 95.26771Z" fill-rule="nonzero"/><path fill="#000000" d="M72.59688 316.4344L72.59688 317.45L66.90938 317.45Q66.90938 317.075 67.03438 316.71564Q67.25313 316.1375 67.72188 315.575Q68.20625 315.0125 69.1125 314.27814Q70.51875 313.1219 71.00313 312.45Q71.50313 311.77814 71.50313 311.1844Q71.50313 310.5594 71.05 310.1375Q70.59688 309.7 69.87813 309.7Q69.1125 309.7 68.65938 310.15314Q68.20625 310.60626 68.19063 311.41876L67.1125 311.3094Q67.22188 310.09064 67.94063 309.46564Q68.675 308.825 69.90938 308.825Q71.14375 308.825 71.8625 309.5125Q72.58125 310.2 72.58125 311.21564Q72.58125 311.73126 72.3625 312.23126Q72.15938 312.71564 71.65938 313.27814Q71.175 313.825 70.05 314.77814Q69.09688 315.575 68.81563 315.8719Q68.55 316.15314 68.37813 316.4344L72.59688 316.4344ZM74.05 313.21564Q74.05 311.6844 74.3625 310.7625Q74.675 309.825 75.28438 309.325Q75.90938 308.825 76.84688 308.825Q77.53438 308.825 78.05 309.10626Q78.58125 309.3875 78.925 309.91876Q79.26875 310.4344 79.45625 311.1844Q79.64375 311.9344 79.64375 313.21564Q79.64375 314.73126 79.33125 315.65314Q79.03438 316.575 78.40938 317.09064Q77.8 317.59064 76.84688 317.59064Q75.6125 317.59064 74.89375 316.7Q74.05 315.6375 74.05 313.21564ZM75.12813 313.21564Q75.12813 315.325 75.62813 316.02814Q76.12813 316.73126 76.84688 316.73126Q77.58125 316.73126 78.06563 316.02814Q78.56563 315.325 78.56563 313.21564Q78.56563 311.09064 78.06563 310.40314Q77.58125 309.7 76.83125 309.7Q76.1125 309.7 75.675 310.3094Q75.12813 311.09064 75.12813 313.21564ZM85.01875 317.45L83.97188 317.45L83.97188 310.73126Q83.58125 311.09064 82.95625 311.46564Q82.34688 311.825 81.8625 311.9969L81.8625 310.98126Q82.7375 310.5594 83.39375 309.98126Q84.06563 309.3875 84.34688 308.825L85.01875 308.825L85.01875 317.45ZM88.05 313.21564Q88.05 311.6844 88.3625 310.7625Q88.675 309.825 89.28438 309.325Q89.90938 308.825 90.84688 308.825Q91.53438 308.825 92.05 309.10626Q92.58125 309.3875 92.925 309.91876Q93.26875 310.4344 93.45625 311.1844Q93.64375 311.9344 93.64375 313.21564Q93.64375 314.73126 93.33125 315.65314Q93.03438 316.575 92.40938 317.09064Q91.8 317.59064 90.84688 317.59064Q89.6125 317.59064 88.89375 316.7Q88.05 315.6375 88.05 313.21564ZM89.12813 313.21564Q89.12813 315.325 89.62813 316.02814Q90.12813 316.73126 90.84688 316.73126Q91.58125 316.73126 92.06563 316.02814Q92.56563 315.325 92.56563 313.21564Q92.56563 311.09064 92.06563 310.40314Q91.58125 309.7 90.83125 309.7Q90.1125 309.7 89.675 310.3094Q89.12813 311.09064 89.12813 313.21564Z" fill-rule="nonzero"/><path fill="#000000" d="M183.90799 316.4344L183.90799 317.45L178.22049 317.45Q178.22049 317.075 178.34549 316.71564Q178.56424 316.1375 179.03299 315.575Q179.51736 315.0125 180.42361 314.27814Q181.82986 313.1219 182.31424 312.45Q182.81424 311.77814 182.81424 311.1844Q182.81424 310.5594 182.36111 310.1375Q181.90799 309.7 181.18924 309.7Q180.42361 309.7 179.97049 310.15314Q179.51736 310.60626 179.50174 311.41876L178.42361 311.3094Q178.53299 310.09064 179.25174 309.46564Q179.98611 308.825 181.22049 308.825Q182.45486 308.825 183.17361 309.5125Q183.89236 310.2 183.89236 311.21564Q183.89236 311.73126 183.67361 312.23126Q183.47049 312.71564 182.97049 313.27814Q182.48611 313.825 181.36111 314.77814Q180.40799 315.575 180.12674 315.8719Q179.86111 316.15314 179.68924 316.4344L183.90799 316.4344ZM185.36111 313.21564Q185.36111 311.6844 185.67361 310.7625Q185.98611 309.825 186.59549 309.325Q187.22049 308.825 188.15799 308.825Q188.84549 308.825 189.36111 309.10626Q189.89236 309.3875 190.23611 309.91876Q190.57986 310.4344 190.76736 311.1844Q190.95486 311.9344 190.95486 313.21564Q190.95486 314.73126 190.64236 315.65314Q190.34549 316.575 189.72049 317.09064Q189.11111 317.59064 188.15799 317.59064Q186.92361 317.59064 186.20486 316.7Q185.36111 315.6375 185.36111 313.21564ZM186.43924 313.21564Q186.43924 315.325 186.93924 316.02814Q187.43924 316.73126 188.15799 316.73126Q188.89236 316.73126 189.37674 316.02814Q189.87674 315.325 189.87674 313.21564Q189.87674 311.09064 189.37674 310.40314Q188.89236 309.7 188.14236 309.7Q187.42361 309.7 186.98611 310.3094Q186.43924 311.09064 186.43924 313.21564ZM196.32986 317.45L195.28299 317.45L195.28299 310.73126Q194.89236 311.09064 194.26736 311.46564Q193.65799 311.825 193.17361 311.9969L193.17361 310.98126Q194.04861 310.5594 194.70486 309.98126Q195.37674 309.3875 195.65799 308.825L196.32986 308.825L196.32986 317.45ZM204.90799 316.4344L204.90799 317.45L199.22049 317.45Q199.22049 317.075 199.34549 316.71564Q199.56424 316.1375 200.03299 315.575Q200.51736 315.0125 201.42361 314.27814Q202.82986 313.1219 203.31424 312.45Q203.81424 311.77814 203.81424 311.1844Q203.81424 310.5594 203.36111 310.1375Q202.90799 309.7 202.18924 309.7Q201.42361 309.7 200.97049 310.15314Q200.51736 310.60626 200.50174 311.41876L199.42361 311.3094Q199.53299 310.09064 200.25174 309.46564Q200.98611 308.825 202.22049 308.825Q203.45486 308.825 204.17361 309.5125Q204.89236 310.2 204.89236 311.21564Q204.89236 311.73126 204.67361 312.23126Q204.47049 312.71564 203.97049 313.27814Q203.48611 313.825 202.36111 314.77814Q201.40799 315.575 201.12674 315.8719Q200.86111 316.15314 200.68924 316.4344L204.90799 316.4344Z" fill-rule="nonzero"/><path fill="#000000" d="M295.2191 316.4344L295.2191 317.45L289.5316 317.45Q289.5316 317.075 289.6566 316.71564Q289.87534 316.1375 290.3441 315.575Q290.82846 315.0125 291.7347 314.27814Q293.14096 313.1219 293.62534 312.45Q294.12534 311.77814 294.12534 311.1844Q294.12534 310.5594 293.6722 310.1375Q293.2191 309.7 292.50034 309.7Q291.7347 309.7 291.2816 310.15314Q290.82846 310.60626 290.81284 311.41876L289.7347 311.3094Q289.8441 310.09064 290.56284 309.46564Q291.2972 308.825 292.5316 308.825Q293.76596 308.825 294.4847 309.5125Q295.20346 310.2 295.20346 311.21564Q295.20346 311.73126 294.9847 312.23126Q294.7816 312.71564 294.2816 313.27814Q293.7972 313.825 292.6722 314.77814Q291.7191 315.575 291.43784 315.8719Q291.1722 316.15314 291.00034 316.4344L295.2191 316.4344ZM296.6722 313.21564Q296.6722 311.6844 296.9847 310.7625Q297.2972 309.825 297.9066 309.325Q298.5316 308.825 299.4691 308.825Q300.1566 308.825 300.6722 309.10626Q301.20346 309.3875 301.5472 309.91876Q301.89096 310.4344 302.07846 311.1844Q302.26596 311.9344 302.26596 313.21564Q302.26596 314.73126 301.95346 315.65314Q301.6566 316.575 301.0316 317.09064Q300.4222 317.59064 299.4691 317.59064Q298.2347 317.59064 297.51596 316.7Q296.6722 315.6375 296.6722 313.21564ZM297.75034 313.21564Q297.75034 315.325 298.25034 316.02814Q298.75034 316.73126 299.4691 316.73126Q300.20346 316.73126 300.68784 316.02814Q301.18784 315.325 301.18784 313.21564Q301.18784 311.09064 300.68784 310.40314Q300.20346 309.7 299.45346 309.7Q298.7347 309.7 298.2972 310.3094Q297.75034 311.09064 297.75034 313.21564ZM307.64096 317.45L306.5941 317.45L306.5941 310.73126Q306.20346 311.09064 305.57846 311.46564Q304.9691 311.825 304.4847 311.9969L304.4847 310.98126Q305.3597 310.5594 306.01596 309.98126Q306.68784 309.3875 306.9691 308.825L307.64096 308.825L307.64096 317.45ZM314.0472 317.45L314.0472 315.3875L310.32846 315.3875L310.32846 314.41876L314.25034 308.85626L315.1097 308.85626L315.1097 314.41876L316.26596 314.41876L316.26596 315.3875L315.1097 315.3875L315.1097 317.45L314.0472 317.45ZM314.0472 314.41876L314.0472 310.5594L311.3597 314.41876L314.0472 314.41876Z" fill-rule="nonzero"/><path fill="#000000" d="M406.5302 316.4344L406.5302 317.45L400.8427 317.45Q400.8427 317.075 400.9677 316.71564Q401.18646 316.1375 401.6552 315.575Q402.1396 315.0125 403.04584 314.27814Q404.4521 313.1219 404.93646 312.45Q405.43646 311.77814 405.43646 311.1844Q405.43646 310.5594 404.98334 310.1375Q404.5302 309.7 403.81146 309.7Q403.04584 309.7 402.5927 310.15314Q402.1396 310.60626 402.12396 311.41876L401.04584 311.3094Q401.1552 310.09064 401.87396 309.46564Q402.60834 308.825 403.8427 308.825Q405.0771 308.825 405.79584 309.5125Q406.5146 310.2 406.5146 311.21564Q406.5146 311.73126 406.29584 312.23126Q406.0927 312.71564 405.5927 313.27814Q405.10834 313.825 403.98334 314.77814Q403.0302 315.575 402.74896 315.8719Q402.48334 316.15314 402.31146 316.4344L406.5302 316.4344ZM407.98334 313.21564Q407.98334 311.6844 408.29584 310.7625Q408.60834 309.825 409.2177 309.325Q409.8427 308.825 410.7802 308.825Q411.4677 308.825 411.98334 309.10626Q412.5146 309.3875 412.85834 309.91876Q413.2021 310.4344 413.3896 311.1844Q413.5771 311.9344 413.5771 313.21564Q413.5771 314.73126 413.2646 315.65314Q412.9677 316.575 412.3427 317.09064Q411.73334 317.59064 410.7802 317.59064Q409.54584 317.59064 408.8271 316.7Q407.98334 315.6375 407.98334 313.21564ZM409.06146 313.21564Q409.06146 315.325 409.56146 316.02814Q410.06146 316.73126 410.7802 316.73126Q411.5146 316.73126 411.99896 316.02814Q412.49896 315.325 412.49896 313.21564Q412.49896 311.09064 411.99896 310.40314Q411.5146 309.7 410.7646 309.7Q410.04584 309.7 409.60834 310.3094Q409.06146 311.09064 409.06146 313.21564ZM418.9521 317.45L417.9052 317.45L417.9052 310.73126Q417.5146 311.09064 416.8896 311.46564Q416.2802 311.825 415.79584 311.9969L415.79584 310.98126Q416.67084 310.5594 417.3271 309.98126Q417.99896 309.3875 418.2802 308.825L418.9521 308.825L418.9521 317.45ZM427.4521 310.96564L426.4052 311.04376Q426.2646 310.41876 426.0146 310.1375Q425.5771 309.6844 424.9521 309.6844Q424.4521 309.6844 424.06146 309.96564Q423.5771 310.34064 423.2802 311.04376Q422.99896 311.73126 422.98334 313.0125Q423.35834 312.4344 423.9052 312.15314Q424.4677 311.8719 425.0771 311.8719Q426.12396 311.8719 426.85834 312.65314Q427.60834 313.4344 427.60834 314.65314Q427.60834 315.46564 427.24896 316.16876Q426.9052 316.85626 426.29584 317.23126Q425.68646 317.59064 424.92084 317.59064Q423.5927 317.59064 422.7646 316.6219Q421.93646 315.65314 421.93646 313.4344Q421.93646 310.9344 422.85834 309.8094Q423.6552 308.825 425.0146 308.825Q426.0302 308.825 426.67084 309.40314Q427.3271 309.96564 427.4521 310.96564ZM423.1552 314.66876Q423.1552 315.21564 423.37396 315.71564Q423.60834 316.2 424.0146 316.46564Q424.43646 316.73126 424.9052 316.73126Q425.56146 316.73126 426.04584 316.2Q426.5302 315.65314 426.5302 314.73126Q426.5302 313.84064 426.04584 313.325Q425.5771 312.8094 424.85834 312.8094Q424.1396 312.8094 423.6396 313.325Q423.1552 313.84064 423.1552 314.66876Z" fill-rule="nonzero"/><path fill="#000000" d="M517.8413 316.4344L517.8413 317.45L512.1538 317.45Q512.1538 317.075 512.2788 316.71564Q512.49756 316.1375 512.9663 315.575Q513.4507 315.0125 514.35693 314.27814Q515.7632 313.1219 516.24756 312.45Q516.74756 311.77814 516.74756 311.1844Q516.74756 310.5594 516.29443 310.1375Q515.8413 309.7 515.12256 309.7Q514.35693 309.7 513.9038 310.15314Q513.4507 310.60626 513.43506 311.41876L512.35693 311.3094Q512.4663 310.09064 513.18506 309.46564Q513.91943 308.825 515.1538 308.825Q516.3882 308.825 517.10693 309.5125Q517.8257 310.2 517.8257 311.21564Q517.8257 311.73126 517.60693 312.23126Q517.4038 312.71564 516.9038 313.27814Q516.41943 313.825 515.29443 314.77814Q514.3413 315.575 514.06006 315.8719Q513.79443 316.15314 513.62256 316.4344L517.8413 316.4344ZM519.29443 313.21564Q519.29443 311.6844 519.60693 310.7625Q519.91943 309.825 520.5288 309.325Q521.1538 308.825 522.0913 308.825Q522.7788 308.825 523.29443 309.10626Q523.8257 309.3875 524.16943 309.91876Q524.5132 310.4344 524.7007 311.1844Q524.8882 311.9344 524.8882 313.21564Q524.8882 314.73126 524.5757 315.65314Q524.2788 316.575 523.6538 317.09064Q523.04443 317.59064 522.0913 317.59064Q520.85693 317.59064 520.1382 316.7Q519.29443 315.6375 519.29443 313.21564ZM520.37256 313.21564Q520.37256 315.325 520.87256 316.02814Q521.37256 316.73126 522.0913 316.73126Q522.8257 316.73126 523.31006 316.02814Q523.81006 315.325 523.81006 313.21564Q523.81006 311.09064 523.31006 310.40314Q522.8257 309.7 522.0757 309.7Q521.35693 309.7 520.91943 310.3094Q520.37256 311.09064 520.37256 313.21564ZM530.2632 317.45L529.2163 317.45L529.2163 310.73126Q528.8257 311.09064 528.2007 311.46564Q527.5913 311.825 527.10693 311.9969L527.10693 310.98126Q527.98193 310.5594 528.6382 309.98126Q529.31006 309.3875 529.5913 308.825L530.2632 308.825L530.2632 317.45ZM534.91943 312.79376Q534.2632 312.54376 533.93506 312.10626Q533.62256 311.65314 533.62256 311.04376Q533.62256 310.10626 534.29443 309.46564Q534.98193 308.825 536.0913 308.825Q537.2163 308.825 537.9038 309.48126Q538.5913 310.1375 538.5913 311.075Q538.5913 311.66876 538.2788 312.10626Q537.9663 312.54376 537.3257 312.79376Q538.12256 313.04376 538.5288 313.6219Q538.93506 314.2 538.93506 314.9969Q538.93506 316.09064 538.1538 316.84064Q537.3882 317.59064 536.10693 317.59064Q534.8413 317.59064 534.06006 316.84064Q533.2788 316.09064 533.2788 314.96564Q533.2788 314.1219 533.7007 313.5594Q534.1382 312.9969 534.91943 312.79376ZM534.7007 310.9969Q534.7007 311.60626 535.0913 311.9969Q535.49756 312.3875 536.12256 312.3875Q536.73193 312.3875 537.12256 312.0125Q537.5132 311.6219 537.5132 311.0594Q537.5132 310.48126 537.10693 310.09064Q536.7007 309.6844 536.10693 309.6844Q535.49756 309.6844 535.0913 310.075Q534.7007 310.46564 534.7007 310.9969ZM534.37256 314.96564Q534.37256 315.41876 534.5757 315.84064Q534.79443 316.2625 535.2163 316.4969Q535.6382 316.73126 536.12256 316.73126Q536.87256 316.73126 537.35693 316.2469Q537.85693 315.7625 537.85693 315.0125Q537.85693 314.2469 537.35693 313.7469Q536.85693 313.2469 536.0913 313.2469Q535.3413 313.2469 534.85693 313.7469Q534.37256 314.23126 534.37256 314.96564Z" fill-rule="nonzero"/><path stroke="#4285f4" stroke-width="4.0" stroke-linecap="butt" d="M158.0 65.916664L170.0 65.916664" fill-rule="nonzero"/><path fill="#1a1a1a" d="M177.98438 69.916664L181.28125 61.322914L182.5 61.322914L186.01562 69.916664L184.73438 69.916664L183.71875 67.30729L180.14062 67.30729L179.1875 69.916664L177.98438 69.916664ZM180.46875 66.385414L183.375 66.385414L182.48438 64.010414Q182.0625 62.93229 181.875 62.229164Q181.70312 63.05729 181.40625 63.86979L180.46875 66.385414ZM186.79688 69.916664L186.79688 63.697914L187.73438 63.697914L187.73438 64.572914Q188.03125 64.104164 188.51562 63.83854Q189.0 63.55729 189.625 63.55729Q190.3125 63.55729 190.75 63.83854Q191.20312 64.11979 191.375 64.635414Q192.125 63.55729 193.29688 63.55729Q194.23438 63.55729 194.71875 64.072914Q195.21875 64.572914 195.21875 65.65104L195.21875 69.916664L194.17188 69.916664L194.17188 65.99479Q194.17188 65.36979 194.0625 65.08854Q193.96875 64.80729 193.70312 64.635414Q193.4375 64.46354 193.0625 64.46354Q192.40625 64.46354 191.96875 64.90104Q191.54688 65.33854 191.54688 66.30729L191.54688 69.916664L190.48438 69.916664L190.48438 65.86979Q190.48438 65.166664 190.21875 64.822914Q189.96875 64.46354 189.39062 64.46354Q188.9375 64.46354 188.5625 64.697914Q188.1875 64.93229 188.01562 65.385414Q187.84375 65.83854 187.84375 66.68229L187.84375 69.916664L186.79688 69.916664ZM200.85938 69.15104Q200.26562 69.65104 199.71875 69.854164Q199.1875 70.05729 198.5625 70.05729Q197.53125 70.05729 196.98438 69.55729Q196.4375 69.05729 196.4375 68.27604Q196.4375 67.822914 196.64062 67.447914Q196.84375 67.05729 197.1875 66.83854Q197.53125 66.604164 197.95312 66.49479Q198.25 66.40104 198.89062 66.322914Q200.15625 66.18229 200.76562 65.96354Q200.76562 65.74479 200.76562 65.697914Q200.76562 65.041664 200.46875 64.77604Q200.0625 64.43229 199.26562 64.43229Q198.53125 64.43229 198.17188 64.697914Q197.8125 64.947914 197.64062 65.604164L196.60938 65.46354Q196.75 64.80729 197.07812 64.40104Q197.40625 63.99479 198.01562 63.77604Q198.625 63.55729 199.42188 63.55729Q200.21875 63.55729 200.71875 63.74479Q201.21875 63.93229 201.45312 64.21354Q201.6875 64.49479 201.78125 64.93229Q201.82812 65.197914 201.82812 65.90104L201.82812 67.30729Q201.82812 68.77604 201.89062 69.166664Q201.96875 69.55729 202.17188 69.916664L201.0625 69.916664Q200.90625 69.58854 200.85938 69.15104ZM200.76562 66.791664Q200.1875 67.02604 199.04688 67.197914Q198.39062 67.291664 198.125 67.416664Q197.85938 67.52604 197.70312 67.74479Q197.5625 67.96354 197.5625 68.24479Q197.5625 68.666664 197.875 68.947914Q198.20312 69.229164 198.8125 69.229164Q199.42188 69.229164 199.89062 68.96354Q200.375 68.697914 200.59375 68.229164Q200.76562 67.86979 200.76562 67.18229L200.76562 66.791664ZM203.23438 69.916664L203.23438 69.05729L207.20312 64.510414Q206.51562 64.541664 206.0 64.541664L203.46875 64.541664L203.46875 63.697914L208.5625 63.697914L208.5625 64.385414L205.1875 68.33854L204.53125 69.05729Q205.25 69.010414 205.85938 69.010414L208.75 69.010414L208.75 69.916664L203.23438 69.916664ZM209.40625 66.80729Q209.40625 65.072914 210.35938 64.24479Q211.15625 63.55729 212.3125 63.55729Q213.59375 63.55729 214.40625 64.40104Q215.23438 65.229164 215.23438 66.71354Q215.23438 67.916664 214.875 68.604164Q214.51562 69.291664 213.8125 69.68229Q213.125 70.05729 212.3125 70.05729Q211.01562 70.05729 210.20312 69.229164Q209.40625 68.385414 209.40625 66.80729ZM210.48438 66.80729Q210.48438 67.99479 211.0 68.58854Q211.53125 69.18229 212.3125 69.18229Q213.10938 69.18229 213.625 68.58854Q214.14062 67.99479 214.14062 66.77604Q214.14062 65.61979 213.60938 65.02604Q213.09375 64.43229 212.3125 64.43229Q211.53125 64.43229 211.0 65.02604Q210.48438 65.604164 210.48438 66.80729ZM216.79688 69.916664L216.79688 63.697914L217.73438 63.697914L217.73438 64.572914Q218.42188 63.55729 219.71875 63.55729Q220.28125 63.55729 220.75 63.760414Q221.23438 63.96354 221.46875 64.291664Q221.70312 64.61979 221.79688 65.05729Q221.84375 65.354164 221.84375 66.08854L221.84375 69.916664L220.79688 69.916664L220.79688 66.135414Q220.79688 65.479164 220.67188 65.166664Q220.54688 64.854164 220.23438 64.666664Q219.92188 64.46354 219.5 64.46354Q218.82812 64.46354 218.32812 64.90104Q217.84375 65.322914 217.84375 66.510414L217.84375 69.916664L216.79688 69.916664ZM226.54688 67.15104L227.60938 67.05729Q227.6875 67.71354 227.96875 68.11979Q228.25 68.52604 228.82812 68.791664Q229.42188 69.041664 230.15625 69.041664Q230.79688 69.041664 231.29688 68.854164Q231.79688 68.65104 232.03125 68.322914Q232.28125 67.979164 232.28125 67.58854Q232.28125 67.18229 232.04688 66.885414Q231.8125 66.572914 231.28125 66.36979Q230.92188 66.229164 229.73438 65.947914Q228.5625 65.666664 228.09375 65.416664Q227.46875 65.08854 227.17188 64.61979Q226.875 64.135414 226.875 63.541664Q226.875 62.90104 227.23438 62.33854Q227.60938 61.760414 228.3125 61.479164Q229.03125 61.18229 229.89062 61.18229Q230.84375 61.18229 231.57812 61.49479Q232.3125 61.791664 232.70312 62.40104Q233.09375 62.99479 233.125 63.74479L232.03125 63.822914Q231.9375 63.010414 231.42188 62.604164Q230.92188 62.18229 229.9375 62.18229Q228.90625 62.18229 228.4375 62.55729Q227.96875 62.93229 227.96875 63.46354Q227.96875 63.93229 228.29688 64.229164Q228.625 64.52604 230.0 64.83854Q231.39062 65.15104 231.90625 65.385414Q232.65625 65.74479 233.01562 66.27604Q233.375 66.791664 233.375 67.49479Q233.375 68.18229 232.98438 68.791664Q232.59375 69.385414 231.85938 69.729164Q231.125 70.05729 230.20312 70.05729Q229.03125 70.05729 228.23438 69.729164Q227.45312 69.385414 227.0 68.697914Q226.5625 68.010414 226.54688 67.15104ZM234.5 67.65104L235.5625 67.510414Q235.73438 68.40104 236.17188 68.80729Q236.60938 69.197914 237.23438 69.197914Q237.98438 69.197914 238.5 68.68229Q239.01562 68.166664 239.01562 67.40104Q239.01562 66.68229 238.53125 66.21354Q238.0625 65.729164 237.32812 65.729164Q237.03125 65.729164 236.57812 65.854164L236.70312 64.916664Q236.8125 64.93229 236.875 64.93229Q237.54688 64.93229 238.07812 64.58854Q238.625 64.229164 238.625 63.49479Q238.625 62.916664 238.23438 62.541664Q237.84375 62.15104 237.21875 62.15104Q236.60938 62.15104 236.1875 62.541664Q235.78125 62.93229 235.67188 63.697914L234.60938 63.510414Q234.79688 62.46354 235.48438 61.885414Q236.17188 61.291664 237.1875 61.291664Q237.89062 61.291664 238.48438 61.604164Q239.07812 61.90104 239.39062 62.416664Q239.70312 62.93229 239.70312 63.52604Q239.70312 64.072914 239.40625 64.541664Q239.10938 64.99479 238.53125 65.260414Q239.28125 65.43229 239.70312 65.99479Q240.125 66.541664 240.125 67.385414Q240.125 68.510414 239.29688 69.291664Q238.48438 70.072914 237.23438 70.072914Q236.10938 70.072914 235.35938 69.40104Q234.60938 68.71354 234.5 67.65104Z" fill-rule="nonzero"/><path stroke="#ea4335" stroke-width="4.0" stroke-linecap="butt" d="M257.0 65.916664L269.0 65.916664" fill-rule="nonzero"/><path fill="#1a1a1a" d="M281.95312 66.541664L281.95312 65.541664L285.57812 65.52604L285.57812 68.71354Q284.75 69.385414 283.85938 69.729164Q282.96875 70.05729 282.03125 70.05729Q280.76562 70.05729 279.71875 69.52604Q278.6875 68.979164 278.15625 67.96354Q277.64062 66.93229 277.64062 65.666664Q277.64062 64.40104 278.15625 63.322914Q278.6875 62.229164 279.67188 61.71354Q280.65625 61.18229 281.9375 61.18229Q282.875 61.18229 283.625 61.479164Q284.375 61.77604 284.79688 62.322914Q285.23438 62.854164 285.45312 63.729164L284.4375 64.010414Q284.23438 63.354164 283.9375 62.979164Q283.65625 62.604164 283.125 62.385414Q282.59375 62.15104 281.95312 62.15104Q281.17188 62.15104 280.59375 62.385414Q280.03125 62.61979 279.67188 63.010414Q279.32812 63.40104 279.14062 63.86979Q278.8125 64.666664 278.8125 65.58854Q278.8125 66.74479 279.20312 67.52604Q279.60938 68.291664 280.35938 68.666664Q281.10938 69.041664 281.96875 69.041664Q282.70312 69.041664 283.40625 68.760414Q284.10938 68.46354 284.46875 68.15104L284.46875 66.541664L281.95312 66.541664ZM286.40625 66.80729Q286.40625 65.072914 287.35938 64.24479Q288.15625 63.55729 289.3125 63.55729Q290.59375 63.55729 291.40625 64.40104Q292.23438 65.229164 292.23438 66.71354Q292.23438 67.916664 291.875 68.604164Q291.51562 69.291664 290.8125 69.68229Q290.125 70.05729 289.3125 70.05729Q288.01562 70.05729 287.20312 69.229164Q286.40625 68.385414 286.40625 66.80729ZM287.48438 66.80729Q287.48438 67.99479 288.0 68.58854Q288.53125 69.18229 289.3125 69.18229Q290.10938 69.18229 290.625 68.58854Q291.14062 67.99479 291.14062 66.77604Q291.14062 65.61979 290.60938 65.02604Q290.09375 64.43229 289.3125 64.43229Q288.53125 64.43229 288.0 65.02604Q287.48438 65.604164 287.48438 66.80729ZM293.40625 66.80729Q293.40625 65.072914 294.35938 64.24479Q295.15625 63.55729 296.3125 63.55729Q297.59375 63.55729 298.40625 64.40104Q299.23438 65.229164 299.23438 66.71354Q299.23438 67.916664 298.875 68.604164Q298.51562 69.291664 297.8125 69.68229Q297.125 70.05729 296.3125 70.05729Q295.01562 70.05729 294.20312 69.229164Q293.40625 68.385414 293.40625 66.80729ZM294.48438 66.80729Q294.48438 67.99479 295.0 68.58854Q295.53125 69.18229 296.3125 69.18229Q297.10938 69.18229 297.625 68.58854Q298.14062 67.99479 298.14062 66.77604Q298.14062 65.61979 297.60938 65.02604Q297.09375 64.43229 296.3125 64.43229Q295.53125 64.43229 295.0 65.02604Q294.48438 65.604164 294.48438 66.80729ZM300.59375 70.43229L301.625 70.58854Q301.6875 71.05729 301.98438 71.27604Q302.375 71.572914 303.04688 71.572914Q303.78125 71.572914 304.17188 71.27604Q304.57812 70.979164 304.71875 70.46354Q304.8125 70.135414 304.79688 69.104164Q304.10938 69.916664 303.07812 69.916664Q301.79688 69.916664 301.09375 68.99479Q300.39062 68.05729 300.39062 66.77604Q300.39062 65.885414 300.70312 65.135414Q301.03125 64.36979 301.64062 63.96354Q302.25 63.55729 303.07812 63.55729Q304.1875 63.55729 304.90625 64.447914L304.90625 63.697914L305.875 63.697914L305.875 69.072914Q305.875 70.52604 305.57812 71.135414Q305.28125 71.74479 304.64062 72.08854Q304.0 72.447914 303.0625 72.447914Q301.95312 72.447914 301.26562 71.947914Q300.57812 71.447914 300.59375 70.43229ZM301.46875 66.697914Q301.46875 67.916664 301.95312 68.479164Q302.4375 69.041664 303.17188 69.041664Q303.90625 69.041664 304.39062 68.479164Q304.89062 67.916664 304.89062 66.729164Q304.89062 65.58854 304.375 65.010414Q303.875 64.43229 303.15625 64.43229Q302.45312 64.43229 301.95312 65.010414Q301.46875 65.572914 301.46875 66.697914ZM307.76562 69.916664L307.76562 61.322914L308.82812 61.322914L308.82812 69.916664L307.76562 69.916664ZM315.04688 67.916664L316.14062 68.041664Q315.89062 68.99479 315.1875 69.52604Q314.48438 70.05729 313.40625 70.05729Q312.04688 70.05729 311.23438 69.21354Q310.4375 68.36979 310.4375 66.854164Q310.4375 65.291664 311.25 64.43229Q312.0625 63.55729 313.34375 63.55729Q314.59375 63.55729 315.375 64.40104Q316.17188 65.24479 316.17188 66.791664Q316.17188 66.885414 316.17188 67.072914L311.53125 67.072914Q311.59375 68.104164 312.10938 68.65104Q312.625 69.18229 313.40625 69.18229Q313.98438 69.18229 314.39062 68.885414Q314.8125 68.572914 315.04688 67.916664ZM311.59375 66.21354L315.0625 66.21354Q315.0 65.416664 314.67188 65.02604Q314.15625 64.416664 313.35938 64.416664Q312.625 64.416664 312.125 64.90104Q311.64062 65.385414 311.59375 66.21354ZM327.0625 66.90104L328.1875 67.197914Q327.82812 68.58854 326.90625 69.322914Q325.98438 70.05729 324.64062 70.05729Q323.25 70.05729 322.375 69.49479Q321.5 68.93229 321.04688 67.86979Q320.59375 66.791664 320.59375 65.55729Q320.59375 64.21354 321.10938 63.21354Q321.625 62.21354 322.5625 61.697914Q323.51562 61.18229 324.65625 61.18229Q325.9375 61.18229 326.8125 61.83854Q327.70312 62.49479 328.04688 63.68229L326.92188 63.947914Q326.625 63.010414 326.04688 62.58854Q325.48438 62.15104 324.625 62.15104Q323.64062 62.15104 322.96875 62.635414Q322.3125 63.104164 322.03125 63.90104Q321.76562 64.697914 321.76562 65.55729Q321.76562 66.65104 322.07812 67.46354Q322.40625 68.27604 323.07812 68.68229Q323.75 69.08854 324.54688 69.08854Q325.5 69.08854 326.15625 68.541664Q326.82812 67.99479 327.0625 66.90104ZM329.76562 69.916664L329.76562 61.322914L330.82812 61.322914L330.82812 69.916664L329.76562 69.916664ZM332.40625 66.80729Q332.40625 65.072914 333.35938 64.24479Q334.15625 63.55729 335.3125 63.55729Q336.59375 63.55729 337.40625 64.40104Q338.23438 65.229164 338.23438 66.71354Q338.23438 67.916664 337.875 68.604164Q337.51562 69.291664 336.8125 69.68229Q336.125 70.05729 335.3125 70.05729Q334.01562 70.05729 333.20312 69.229164Q332.40625 68.385414 332.40625 66.80729ZM333.48438 66.80729Q333.48438 67.99479 334.0 68.58854Q334.53125 69.18229 335.3125 69.18229Q336.10938 69.18229 336.625 68.58854Q337.14062 67.99479 337.14062 66.77604Q337.14062 65.61979 336.60938 65.02604Q336.09375 64.43229 335.3125 64.43229Q334.53125 64.43229 334.0 65.02604Q333.48438 65.604164 333.48438 66.80729ZM343.875 69.916664L343.875 68.99479Q343.14062 70.05729 341.89062 70.05729Q341.34375 70.05729 340.85938 69.854164Q340.39062 69.635414 340.15625 69.322914Q339.92188 68.99479 339.82812 68.52604Q339.76562 68.229164 339.76562 67.541664L339.76562 63.697914L340.82812 63.697914L340.82812 67.15104Q340.82812 67.96354 340.89062 68.260414Q340.98438 68.666664 341.29688 68.916664Q341.625 69.15104 342.10938 69.15104Q342.57812 69.15104 342.98438 68.916664Q343.40625 68.666664 343.57812 68.24479Q343.76562 67.822914 343.76562 67.02604L343.76562 63.697914L344.8125 63.697914L344.8125 69.916664L343.875 69.916664ZM350.82812 69.916664L350.82812 69.135414Q350.23438 70.05729 349.09375 70.05729Q348.34375 70.05729 347.71875 69.65104Q347.09375 69.229164 346.75 68.49479Q346.40625 67.760414 346.40625 66.80729Q346.40625 65.885414 346.71875 65.11979Q347.03125 64.354164 347.65625 63.96354Q348.28125 63.55729 349.04688 63.55729Q349.60938 63.55729 350.04688 63.791664Q350.48438 64.02604 350.76562 64.40104L350.76562 61.322914L351.8125 61.322914L351.8125 69.916664L350.82812 69.916664ZM347.5 66.80729Q347.5 68.010414 348.0 68.604164Q348.5 69.18229 349.1875 69.18229Q349.875 69.18229 350.35938 68.61979Q350.84375 68.05729 350.84375 66.90104Q350.84375 65.61979 350.34375 65.02604Q349.85938 64.43229 349.14062 64.43229Q348.4375 64.43229 347.96875 65.010414Q347.5 65.572914 347.5 66.80729Z" fill-rule="nonzero"/><path stroke="#fbbc04" stroke-width="4.0" stroke-linecap="butt" d="M369.0 65.916664L381.0 65.916664" fill-rule="nonzero"/><path fill="#1a1a1a" d="M389.89062 69.916664L389.89062 61.322914L391.60938 61.322914L393.64062 67.40104Q393.92188 68.260414 394.04688 68.68229Q394.1875 68.21354 394.5 67.30729L396.5625 61.322914L398.09375 61.322914L398.09375 69.916664L397.0 69.916664L397.0 62.729164L394.5 69.916664L393.46875 69.916664L390.98438 62.604164L390.98438 69.916664L389.89062 69.916664ZM399.54688 67.15104L400.60938 67.05729Q400.6875 67.71354 400.96875 68.11979Q401.25 68.52604 401.82812 68.791664Q402.42188 69.041664 403.15625 69.041664Q403.79688 69.041664 404.29688 68.854164Q404.79688 68.65104 405.03125 68.322914Q405.28125 67.979164 405.28125 67.58854Q405.28125 67.18229 405.04688 66.885414Q404.8125 66.572914 404.28125 66.36979Q403.92188 66.229164 402.73438 65.947914Q401.5625 65.666664 401.09375 65.416664Q400.46875 65.08854 400.17188 64.61979Q399.875 64.135414 399.875 63.541664Q399.875 62.90104 400.23438 62.33854Q400.60938 61.760414 401.3125 61.479164Q402.03125 61.18229 402.89062 61.18229Q403.84375 61.18229 404.57812 61.49479Q405.3125 61.791664 405.70312 62.40104Q406.09375 62.99479 406.125 63.74479L405.03125 63.822914Q404.9375 63.010414 404.42188 62.604164Q403.92188 62.18229 402.9375 62.18229Q401.90625 62.18229 401.4375 62.55729Q400.96875 62.93229 400.96875 63.46354Q400.96875 63.93229 401.29688 64.229164Q401.625 64.52604 403.0 64.83854Q404.39062 65.15104 404.90625 65.385414Q405.65625 65.74479 406.01562 66.27604Q406.375 66.791664 406.375 67.49479Q406.375 68.18229 405.98438 68.791664Q405.59375 69.385414 404.85938 69.729164Q404.125 70.05729 403.20312 70.05729Q402.03125 70.05729 401.23438 69.729164Q400.45312 69.385414 400.0 68.697914Q399.5625 68.010414 399.54688 67.15104ZM409.98438 69.916664L413.28125 61.322914L414.5 61.322914L418.01562 69.916664L416.73438 69.916664L415.71875 67.30729L412.14062 67.30729L411.1875 69.916664L409.98438 69.916664ZM412.46875 66.385414L415.375 66.385414L414.48438 64.010414Q414.0625 62.93229 413.875 62.229164Q413.70312 63.05729 413.40625 63.86979L412.46875 66.385414ZM418.23438 69.916664L418.23438 69.05729L422.20312 64.510414Q421.51562 64.541664 421.0 64.541664L418.46875 64.541664L418.46875 63.697914L423.5625 63.697914L423.5625 64.385414L420.1875 68.33854L419.53125 69.05729Q420.25 69.010414 420.85938 69.010414L423.75 69.010414L423.75 69.916664L418.23438 69.916664ZM428.875 69.916664L428.875 68.99479Q428.14062 70.05729 426.89062 70.05729Q426.34375 70.05729 425.85938 69.854164Q425.39062 69.635414 425.15625 69.322914Q424.92188 68.99479 424.82812 68.52604Q424.76562 68.229164 424.76562 67.541664L424.76562 63.697914L425.82812 63.697914L425.82812 67.15104Q425.82812 67.96354 425.89062 68.260414Q425.98438 68.666664 426.29688 68.916664Q426.625 69.15104 427.10938 69.15104Q427.57812 69.15104 427.98438 68.916664Q428.40625 68.666664 428.57812 68.24479Q428.76562 67.822914 428.76562 67.02604L428.76562 63.697914L429.8125 63.697914L429.8125 69.916664L428.875 69.916664ZM431.78125 69.916664L431.78125 63.697914L432.73438 63.697914L432.73438 64.635414Q433.09375 63.979164 433.39062 63.77604Q433.70312 63.55729 434.07812 63.55729Q434.60938 63.55729 435.15625 63.885414L434.79688 64.86979Q434.40625 64.635414 434.03125 64.635414Q433.67188 64.635414 433.39062 64.854164Q433.125 65.05729 433.01562 65.43229Q432.82812 65.99479 432.82812 66.65104L432.82812 69.916664L431.78125 69.916664ZM440.04688 67.916664L441.14062 68.041664Q440.89062 68.99479 440.1875 69.52604Q439.48438 70.05729 438.40625 70.05729Q437.04688 70.05729 436.23438 69.21354Q435.4375 68.36979 435.4375 66.854164Q435.4375 65.291664 436.25 64.43229Q437.0625 63.55729 438.34375 63.55729Q439.59375 63.55729 440.375 64.40104Q441.17188 65.24479 441.17188 66.791664Q441.17188 66.885414 441.17188 67.072914L436.53125 67.072914Q436.59375 68.104164 437.10938 68.65104Q437.625 69.18229 438.40625 69.18229Q438.98438 69.18229 439.39062 68.885414Q439.8125 68.572914 440.04688 67.916664ZM436.59375 66.21354L440.0625 66.21354Q440.0 65.416664 439.67188 65.02604Q439.15625 64.416664 438.35938 64.416664Q437.625 64.416664 437.125 64.90104Q436.64062 65.385414 436.59375 66.21354Z" fill-rule="nonzero"/><path fill="#757575" d="M145.60938 34.51875L147.89062 35.096874Q147.17188 37.89375 145.3125 39.378124Q143.45312 40.846874 140.76562 40.846874Q138.0 40.846874 136.25 39.721874Q134.51562 38.58125 133.60938 36.440624Q132.70312 34.284374 132.70312 31.83125Q132.70312 29.14375 133.71875 27.14375Q134.75 25.14375 136.64062 24.1125Q138.53125 23.08125 140.8125 23.08125Q143.39062 23.08125 145.14062 24.39375Q146.90625 25.70625 147.59375 28.08125L145.35938 28.6125Q144.75 26.7375 143.60938 25.878124Q142.48438 25.01875 140.76562 25.01875Q138.78125 25.01875 137.45312 25.971874Q136.125 26.925 135.57812 28.51875Q135.04688 30.1125 135.04688 31.815624Q135.04688 34.003124 135.67188 35.64375Q136.3125 37.284374 137.65625 38.096874Q139.01562 38.89375 140.57812 38.89375Q142.5 38.89375 143.8125 37.8Q145.14062 36.690624 145.60938 34.51875ZM150.03125 40.55L150.03125 23.3625L152.14062 23.3625L152.14062 40.55L150.03125 40.55ZM154.29688 34.33125Q154.29688 30.8625 156.21875 29.20625Q157.82812 27.815624 160.14062 27.815624Q162.70312 27.815624 164.32812 29.503124Q165.95312 31.190624 165.95312 34.14375Q165.95312 36.55 165.23438 37.925Q164.51562 39.3 163.14062 40.065624Q161.76562 40.83125 160.14062 40.83125Q157.51562 40.83125 155.90625 39.159374Q154.29688 37.471874 154.29688 34.33125ZM156.46875 34.33125Q156.46875 36.721874 157.5 37.909374Q158.54688 39.096874 160.14062 39.096874Q161.70312 39.096874 162.75 37.909374Q163.79688 36.70625 163.79688 34.253124Q163.79688 31.940624 162.73438 30.753124Q161.6875 29.565624 160.14062 29.565624Q158.54688 29.565624 157.5 30.753124Q156.46875 31.940624 156.46875 34.33125ZM176.23438 40.55L176.23438 38.721874Q174.78125 40.83125 172.29688 40.83125Q171.1875 40.83125 170.23438 40.409374Q169.28125 39.9875 168.8125 39.346874Q168.35938 38.70625 168.17188 37.784374Q168.03125 37.159374 168.03125 35.815624L168.03125 28.096874L170.14062 28.096874L170.14062 35.003124Q170.14062 36.659374 170.28125 37.2375Q170.46875 38.065624 171.10938 38.55Q171.76562 39.01875 172.71875 39.01875Q173.65625 39.01875 174.48438 38.534374Q175.32812 38.034374 175.67188 37.20625Q176.01562 36.3625 176.01562 34.76875L176.01562 28.096874L178.125 28.096874L178.125 40.55L176.23438 40.55ZM189.15625 40.55L189.15625 38.971874Q187.96875 40.83125 185.67188 40.83125Q184.1875 40.83125 182.9375 40.01875Q181.6875 39.190624 181.0 37.721874Q180.32812 36.253124 180.32812 34.33125Q180.32812 32.471874 180.9375 30.95625Q181.5625 29.440624 182.79688 28.628124Q184.04688 27.815624 185.57812 27.815624Q186.70312 27.815624 187.57812 28.3Q188.46875 28.76875 189.01562 29.534374L189.01562 23.3625L191.10938 23.3625L191.10938 40.55L189.15625 40.55ZM182.48438 34.33125Q182.48438 36.721874 183.48438 37.909374Q184.5 39.096874 185.875 39.096874Q187.26562 39.096874 188.21875 37.971874Q189.1875 36.83125 189.1875 34.51875Q189.1875 31.95625 188.20312 30.76875Q187.21875 29.565624 185.78125 29.565624Q184.375 29.565624 183.42188 30.721874Q182.48438 31.8625 182.48438 34.33125ZM200.57812 35.034374L202.71875 34.846874Q202.875 36.128124 203.42188 36.95625Q203.98438 37.784374 205.15625 38.3Q206.32812 38.8 207.79688 38.8Q209.09375 38.8 210.09375 38.425Q211.09375 38.034374 211.57812 37.3625Q212.0625 36.675 212.0625 35.878124Q212.0625 35.08125 211.59375 34.471874Q211.125 33.8625 210.04688 33.45625Q209.35938 33.190624 206.98438 32.628124Q204.625 32.05 203.67188 31.55Q202.4375 30.909374 201.82812 29.95625Q201.23438 28.9875 201.23438 27.815624Q201.23438 26.503124 201.96875 25.378124Q202.71875 24.253124 204.125 23.675Q205.54688 23.08125 207.28125 23.08125Q209.1875 23.08125 210.64062 23.690624Q212.10938 24.3 212.89062 25.503124Q213.6875 26.690624 213.73438 28.20625L211.5625 28.378124Q211.39062 26.7375 210.375 25.909374Q209.35938 25.08125 207.375 25.08125Q205.3125 25.08125 204.35938 25.846874Q203.42188 26.596874 203.42188 27.659374Q203.42188 28.58125 204.09375 29.175Q204.75 29.784374 207.51562 30.409374Q210.29688 31.034374 211.32812 31.503124Q212.82812 32.190624 213.53125 33.253124Q214.25 34.315624 214.25 35.690624Q214.25 37.065624 213.46875 38.284374Q212.6875 39.4875 211.21875 40.175Q209.75 40.846874 207.90625 40.846874Q205.57812 40.846874 204.0 40.175Q202.42188 39.4875 201.51562 38.128124Q200.625 36.753124 200.57812 35.034374ZM221.6875 38.659374L222.0 40.51875Q221.10938 40.721874 220.40625 40.721874Q219.25 40.721874 218.60938 40.3625Q217.98438 39.9875 217.71875 39.39375Q217.46875 38.8 217.46875 36.909374L217.46875 29.7375L215.92188 29.7375L215.92188 28.096874L217.46875 28.096874L217.46875 25.01875L219.5625 23.753124L219.5625 28.096874L221.6875 28.096874L221.6875 29.7375L219.5625 29.7375L219.5625 37.01875Q219.5625 37.925 219.67188 38.190624Q219.79688 38.440624 220.04688 38.596874Q220.29688 38.7375 220.76562 38.7375Q221.10938 38.7375 221.6875 38.659374ZM223.29688 34.33125Q223.29688 30.8625 225.21875 29.20625Q226.82812 27.815624 229.14062 27.815624Q231.70312 27.815624 233.32812 29.503124Q234.95312 31.190624 234.95312 34.14375Q234.95312 36.55 234.23438 37.925Q233.51562 39.3 232.14062 40.065624Q230.76562 40.83125 229.14062 40.83125Q226.51562 40.83125 224.90625 39.159374Q223.29688 37.471874 223.29688 34.33125ZM225.46875 34.33125Q225.46875 36.721874 226.5 37.909374Q227.54688 39.096874 229.14062 39.096874Q230.70312 39.096874 231.75 37.909374Q232.79688 36.70625 232.79688 34.253124Q232.79688 31.940624 231.73438 30.753124Q230.6875 29.565624 229.14062 29.565624Q227.54688 29.565624 226.5 30.753124Q225.46875 31.940624 225.46875 34.33125ZM237.0625 40.55L237.0625 28.096874L238.95312 28.096874L238.95312 29.9875Q239.6875 28.659374 240.29688 28.2375Q240.92188 27.815624 241.65625 27.815624Q242.71875 27.815624 243.82812 28.503124L243.09375 30.45625Q242.32812 30.003124 241.54688 30.003124Q240.85938 30.003124 240.29688 30.425Q239.75 30.83125 239.51562 31.565624Q239.17188 32.690624 239.17188 34.034374L239.17188 40.55L237.0625 40.55ZM253.20312 39.01875Q252.03125 40.003124 250.9375 40.425Q249.85938 40.83125 248.625 40.83125Q246.57812 40.83125 245.46875 39.83125Q244.375 38.83125 244.375 37.26875Q244.375 36.346874 244.78125 35.596874Q245.20312 34.846874 245.875 34.39375Q246.54688 33.925 247.39062 33.690624Q248.01562 33.534374 249.26562 33.378124Q251.82812 33.065624 253.03125 32.64375Q253.04688 32.221874 253.04688 32.096874Q253.04688 30.815624 252.4375 30.284374Q251.64062 29.565624 250.04688 29.565624Q248.54688 29.565624 247.84375 30.096874Q247.14062 30.6125 246.79688 31.940624L244.73438 31.659374Q245.01562 30.33125 245.65625 29.51875Q246.29688 28.70625 247.51562 28.26875Q248.73438 27.815624 250.34375 27.815624Q251.9375 27.815624 252.9375 28.190624Q253.9375 28.565624 254.40625 29.14375Q254.875 29.70625 255.0625 30.58125Q255.15625 31.1125 255.15625 32.51875L255.15625 35.33125Q255.15625 38.26875 255.29688 39.05Q255.4375 39.83125 255.82812 40.55L253.625 40.55Q253.29688 39.89375 253.20312 39.01875ZM253.03125 34.3Q251.875 34.76875 249.57812 35.096874Q248.28125 35.284374 247.73438 35.51875Q247.20312 35.753124 246.90625 36.20625Q246.625 36.659374 246.625 37.20625Q246.625 38.05 247.25 38.6125Q247.89062 39.175 249.125 39.175Q250.34375 39.175 251.29688 38.64375Q252.25 38.1125 252.6875 37.190624Q253.03125 36.471874 253.03125 35.08125L253.03125 34.3ZM257.70312 41.58125L259.75 41.89375Q259.875 42.83125 260.46875 43.26875Q261.25 43.8625 262.60938 43.8625Q264.07812 43.8625 264.875 43.26875Q265.67188 42.690624 265.95312 41.628124Q266.10938 40.9875 266.09375 38.925Q264.71875 40.55 262.65625 40.55Q260.09375 40.55 258.6875 38.70625Q257.28125 36.846874 257.28125 34.253124Q257.28125 32.471874 257.92188 30.971874Q258.5625 29.45625 259.78125 28.64375Q261.01562 27.815624 262.67188 27.815624Q264.875 27.815624 266.29688 29.596874L266.29688 28.096874L268.25 28.096874L268.25 38.8625Q268.25 41.76875 267.65625 42.971874Q267.0625 44.190624 265.78125 44.89375Q264.5 45.596874 262.625 45.596874Q260.39062 45.596874 259.01562 44.596874Q257.65625 43.596874 257.70312 41.58125ZM259.4375 34.096874Q259.4375 36.55 260.40625 37.675Q261.39062 38.8 262.85938 38.8Q264.3125 38.8 265.29688 37.690624Q266.28125 36.565624 266.28125 34.175Q266.28125 31.89375 265.26562 30.7375Q264.25 29.565624 262.8125 29.565624Q261.40625 29.565624 260.42188 30.70625Q259.4375 31.846874 259.4375 34.096874ZM279.60938 36.534374L281.78125 36.815624Q281.26562 38.721874 279.875 39.784374Q278.48438 40.83125 276.3125 40.83125Q273.57812 40.83125 271.96875 39.159374Q270.375 37.471874 270.375 34.425Q270.375 31.284374 271.98438 29.55Q273.60938 27.815624 276.1875 27.815624Q278.6875 27.815624 280.26562 29.51875Q281.85938 31.221874 281.85938 34.3Q281.85938 34.4875 281.84375 34.8625L272.5625 34.8625Q272.67188 36.909374 273.71875 38.003124Q274.76562 39.096874 276.32812 39.096874Q277.48438 39.096874 278.29688 38.4875Q279.125 37.878124 279.60938 36.534374ZM272.67188 33.128124L279.625 33.128124Q279.48438 31.565624 278.82812 30.76875Q277.82812 29.55 276.21875 29.55Q274.76562 29.55 273.76562 30.534374Q272.78125 31.503124 272.67188 33.128124ZM291.35938 40.55L291.35938 23.3625L297.82812 23.3625Q299.54688 23.3625 300.45312 23.534374Q301.71875 23.7375 302.5625 24.33125Q303.42188 24.925 303.9375 26.003124Q304.46875 27.065624 304.46875 28.33125Q304.46875 30.534374 303.0625 32.05Q301.67188 33.565624 298.03125 33.565624L293.625 33.565624L293.625 40.55L291.35938 40.55ZM293.625 31.534374L298.0625 31.534374Q300.26562 31.534374 301.1875 30.721874Q302.125 29.89375 302.125 28.409374Q302.125 27.33125 301.57812 26.565624Q301.03125 25.8 300.14062 25.55Q299.5625 25.39375 298.01562 25.39375L293.625 25.39375L293.625 31.534374ZM307.0625 40.55L307.0625 28.096874L308.95312 28.096874L308.95312 29.9875Q309.6875 28.659374 310.29688 28.2375Q310.92188 27.815624 311.65625 27.815624Q312.71875 27.815624 313.82812 28.503124L313.09375 30.45625Q312.32812 30.003124 311.54688 30.003124Q310.85938 30.003124 310.29688 30.425Q309.75 30.83125 309.51562 31.565624Q309.17188 32.690624 309.17188 34.034374L309.17188 40.55L307.0625 40.55ZM314.29688 34.33125Q314.29688 30.8625 316.21875 29.20625Q317.82812 27.815624 320.14062 27.815624Q322.70312 27.815624 324.32812 29.503124Q325.95312 31.190624 325.95312 34.14375Q325.95312 36.55 325.23438 37.925Q324.51562 39.3 323.14062 40.065624Q321.76562 40.83125 320.14062 40.83125Q317.51562 40.83125 315.90625 39.159374Q314.29688 37.471874 314.29688 34.33125ZM316.46875 34.33125Q316.46875 36.721874 317.5 37.909374Q318.54688 39.096874 320.14062 39.096874Q321.70312 39.096874 322.75 37.909374Q323.79688 36.70625 323.79688 34.253124Q323.79688 31.940624 322.73438 30.753124Q321.6875 29.565624 320.14062 29.565624Q318.54688 29.565624 317.5 30.753124Q316.46875 31.940624 316.46875 34.33125ZM331.54688 40.55L326.8125 28.096874L329.03125 28.096874L331.70312 35.55Q332.14062 36.76875 332.5 38.065624Q332.78125 37.08125 333.28125 35.690624L336.04688 28.096874L338.21875 28.096874L333.51562 40.55L331.54688 40.55ZM340.09375 25.8L340.09375 23.3625L342.20312 23.3625L342.20312 25.8L340.09375 25.8ZM340.09375 40.55L340.09375 28.096874L342.20312 28.096874L342.20312 40.55L340.09375 40.55ZM353.15625 40.55L353.15625 38.971874Q351.96875 40.83125 349.67188 40.83125Q348.1875 40.83125 346.9375 40.01875Q345.6875 39.190624 345.0 37.721874Q344.32812 36.253124 344.32812 34.33125Q344.32812 32.471874 344.9375 30.95625Q345.5625 29.440624 346.79688 28.628124Q348.04688 27.815624 349.57812 27.815624Q350.70312 27.815624 351.57812 28.3Q352.46875 28.76875 353.01562 29.534374L353.01562 23.3625L355.10938 23.3625L355.10938 40.55L353.15625 40.55ZM346.48438 34.33125Q346.48438 36.721874 347.48438 37.909374Q348.5 39.096874 349.875 39.096874Q351.26562 39.096874 352.21875 37.971874Q353.1875 36.83125 353.1875 34.51875Q353.1875 31.95625 352.20312 30.76875Q351.21875 29.565624 349.78125 29.565624Q348.375 29.565624 347.42188 30.721874Q346.48438 31.8625 346.48438 34.33125ZM366.60938 36.534374L368.78125 36.815624Q368.26562 38.721874 366.875 39.784374Q365.48438 40.83125 363.3125 40.83125Q360.57812 40.83125 358.96875 39.159374Q357.375 37.471874 357.375 34.425Q357.375 31.284374 358.98438 29.55Q360.60938 27.815624 363.1875 27.815624Q365.6875 27.815624 367.26562 29.51875Q368.85938 31.221874 368.85938 34.3Q368.85938 34.4875 368.84375 34.8625L359.5625 34.8625Q359.67188 36.909374 360.71875 38.003124Q361.76562 39.096874 363.32812 39.096874Q364.48438 39.096874 365.29688 38.4875Q366.125 37.878124 366.60938 36.534374ZM359.67188 33.128124L366.625 33.128124Q366.48438 31.565624 365.82812 30.76875Q364.82812 29.55 363.21875 29.55Q361.76562 29.55 360.76562 30.534374Q359.78125 31.503124 359.67188 33.128124ZM371.0625 40.55L371.0625 28.096874L372.95312 28.096874L372.95312 29.9875Q373.6875 28.659374 374.29688 28.2375Q374.92188 27.815624 375.65625 27.815624Q376.71875 27.815624 377.82812 28.503124L377.09375 30.45625Q376.32812 30.003124 375.54688 30.003124Q374.85938 30.003124 374.29688 30.425Q373.75 30.83125 373.51562 31.565624Q373.17188 32.690624 373.17188 34.034374L373.17188 40.55L371.0625 40.55ZM378.23438 36.83125L380.32812 36.503124Q380.5 37.753124 381.29688 38.425Q382.10938 39.096874 383.54688 39.096874Q385.0 39.096874 385.70312 38.503124Q386.40625 37.909374 386.40625 37.1125Q386.40625 36.39375 385.78125 35.9875Q385.35938 35.70625 383.625 35.26875Q381.3125 34.690624 380.40625 34.26875Q379.51562 33.83125 379.04688 33.08125Q378.59375 32.315624 378.59375 31.409374Q378.59375 30.58125 378.96875 29.878124Q379.35938 29.159374 380.01562 28.690624Q380.5 28.33125 381.34375 28.08125Q382.20312 27.815624 383.17188 27.815624Q384.64062 27.815624 385.75 28.2375Q386.85938 28.659374 387.375 29.39375Q387.90625 30.1125 388.10938 31.315624L386.04688 31.596874Q385.90625 30.628124 385.23438 30.096874Q384.5625 29.55 383.32812 29.55Q381.875 29.55 381.25 30.034374Q380.625 30.51875 380.625 31.159374Q380.625 31.565624 380.89062 31.89375Q381.14062 32.2375 381.70312 32.45625Q382.01562 32.58125 383.5625 33.003124Q385.79688 33.596874 386.67188 33.9875Q387.5625 34.3625 388.0625 35.096874Q388.57812 35.815624 388.57812 36.89375Q388.57812 37.940624 387.95312 38.878124Q387.34375 39.815624 386.1875 40.33125Q385.03125 40.83125 383.5625 40.83125Q381.14062 40.83125 379.85938 39.83125Q378.59375 38.815624 378.23438 36.83125ZM398.35938 40.55L398.35938 23.3625L404.82812 23.3625Q406.54688 23.3625 407.45312 23.534374Q408.71875 23.7375 409.5625 24.33125Q410.42188 24.925 410.9375 26.003124Q411.46875 27.065624 411.46875 28.33125Q411.46875 30.534374 410.0625 32.05Q408.67188 33.565624 405.03125 33.565624L400.625 33.565624L400.625 40.55L398.35938 40.55ZM400.625 31.534374L405.0625 31.534374Q407.26562 31.534374 408.1875 30.721874Q409.125 29.89375 409.125 28.409374Q409.125 27.33125 408.57812 26.565624Q408.03125 25.8 407.14062 25.55Q406.5625 25.39375 405.01562 25.39375L400.625 25.39375L400.625 31.534374ZM414.0625 40.55L414.0625 28.096874L415.95312 28.096874L415.95312 29.9875Q416.6875 28.659374 417.29688 28.2375Q417.92188 27.815624 418.65625 27.815624Q419.71875 27.815624 420.82812 28.503124L420.09375 30.45625Q419.32812 30.003124 418.54688 30.003124Q417.85938 30.003124 417.29688 30.425Q416.75 30.83125 416.51562 31.565624Q416.17188 32.690624 416.17188 34.034374L416.17188 40.55L414.0625 40.55ZM422.09375 25.8L422.09375 23.3625L424.20312 23.3625L424.20312 25.8L422.09375 25.8ZM422.09375 40.55L422.09375 28.096874L424.20312 28.096874L424.20312 40.55L422.09375 40.55ZM435.20312 35.9875L437.28125 36.253124Q436.9375 38.409374 435.53125 39.628124Q434.14062 40.83125 432.09375 40.83125Q429.54688 40.83125 427.98438 39.159374Q426.4375 37.4875 426.4375 34.378124Q426.4375 32.3625 427.10938 30.846874Q427.78125 29.33125 429.14062 28.58125Q430.5 27.815624 432.10938 27.815624Q434.14062 27.815624 435.42188 28.846874Q436.71875 29.878124 437.07812 31.753124L435.03125 32.08125Q434.73438 30.815624 433.98438 30.190624Q433.25 29.55 432.1875 29.55Q430.59375 29.55 429.59375 30.70625Q428.60938 31.846874 428.60938 34.315624Q428.60938 36.815624 429.5625 37.95625Q430.53125 39.096874 432.07812 39.096874Q433.3125 39.096874 434.14062 38.33125Q434.98438 37.565624 435.20312 35.9875ZM439.09375 25.8L439.09375 23.3625L441.20312 23.3625L441.20312 25.8L439.09375 25.8ZM439.09375 40.55L439.09375 28.096874L441.20312 28.096874L441.20312 40.55L439.09375 40.55ZM444.07812 40.55L444.07812 28.096874L445.98438 28.096874L445.98438 29.878124Q447.35938 27.815624 449.9375 27.815624Q451.0625 27.815624 452.0 28.221874Q452.95312 28.628124 453.42188 29.284374Q453.89062 29.940624 454.07812 30.846874Q454.20312 31.425 454.20312 32.89375L454.20312 40.55L452.09375 40.55L452.09375 32.971874Q452.09375 31.690624 451.84375 31.05Q451.59375 30.409374 450.96875 30.034374Q450.34375 29.64375 449.5 29.64375Q448.15625 29.64375 447.17188 30.503124Q446.1875 31.3625 446.1875 33.753124L446.1875 40.55L444.07812 40.55ZM456.70312 41.58125L458.75 41.89375Q458.875 42.83125 459.46875 43.26875Q460.25 43.8625 461.60938 43.8625Q463.07812 43.8625 463.875 43.26875Q464.67188 42.690624 464.95312 41.628124Q465.10938 40.9875 465.09375 38.925Q463.71875 40.55 461.65625 40.55Q459.09375 40.55 457.6875 38.70625Q456.28125 36.846874 456.28125 34.253124Q456.28125 32.471874 456.92188 30.971874Q457.5625 29.45625 458.78125 28.64375Q460.01562 27.815624 461.67188 27.815624Q463.875 27.815624 465.29688 29.596874L465.29688 28.096874L467.25 28.096874L467.25 38.8625Q467.25 41.76875 466.65625 42.971874Q466.0625 44.190624 464.78125 44.89375Q463.5 45.596874 461.625 45.596874Q459.39062 45.596874 458.01562 44.596874Q456.65625 43.596874 456.70312 41.58125ZM458.4375 34.096874Q458.4375 36.55 459.40625 37.675Q460.39062 38.8 461.85938 38.8Q463.3125 38.8 464.29688 37.690624Q465.28125 36.565624 465.28125 34.175Q465.28125 31.89375 464.26562 30.7375Q463.25 29.565624 461.8125 29.565624Q460.40625 29.565624 459.42188 30.70625Q458.4375 31.846874 458.4375 34.096874Z" fill-rule="nonzero"/></svg>